<svg xmlns="http://www.w3.org/2000/svg" viewBox="0 0 79.79 90"><defs><style>.cls-1{fill:#6532ba;}</style></defs><g id="Capa_2" data-name="Capa 2"><g id="Capa_1-2" data-name="Capa 1"><path class="cls-1" d="M4.06,90C.85,89-.47,87,.15,83.7Q2,73.92,4,64.17a8.48,8.48,0,0,1,6-6.47c4.31-1.5,8.61-3,12.93-4.49a1.13,1.13,0,0,0,.92-1.28,9.19,9.19,0,0,1,0-1,1.88,1.88,0,0,0-1-1.85A17,17,0,0,1,15.07,37.3c-.11-.6-.26-.94-1-1-3.6-.34-5.64-3.91-4.44-6.67a3.21,3.21,0,0,0,.18-1.3A85.57,85.57,0,0,1,10,19.54a22.66,22.66,0,0,1,2.67-8,1.41,1.41,0,0,1,2-.75,1.39,1.39,0,0,1,.51,2.05,20.43,20.43,0,0,0-2.31,7,45.87,45.87,0,0,0-.26,6.31c0,.17,0,.37.13.49a3.37,3.37,0,0,0,2.35-.8c.79-3,3.63-5.31,7.84-4.79,6,.73,11.58-.48,16.39-4.4,1.7-1.39,3.32-1.14,4.52.71a5.5,5.5,0,0,0,3.86,2.62,2.27,2.27,0,0,1,2.1,2.5c0,1,0,2.05,0,3.07,0,.61.16.88.83.93,1.38.1,1.39.15,1.37-1.24,0-2.81.17-5.62-.16-8.42s-1.33-5.52-4.13-7a2.62,2.62,0,0,1-.6-.51C43,4.66,37.9,2.81,31.94,2.88a19.19,19.19,0,0,0-12.4,4.63l-.68.55A1.38,1.38,0,0,1,16.77,8a1.48,1.48,0,0,1,.31-2.1,26,26,0,0,1,3.06-2.36c7.93-5.2,19.29-4.64,26.54,1.35,1.44,1.19,2.79,2.48,4.22,3.69,2.66,2.25,3.67,5.38,3.77,8.77.1,3.62,0,7.26,0,10.89a4.37,4.37,0,0,0,.18,1.38,5,5,0,0,1-4.37,6.65c-.78.06-1,.4-1.09,1a16.88,16.88,0,0,1-7.3,11.43,1.91,1.91,0,0,0-1,1.86c.08,2.62-.29,2.14,2.17,3a6.32,6.32,0,0,0,2.15.34h26.7a3.61,3.61,0,0,1,3.71,3.66c.07,1.51,0,3,0,4.56a1.1,1.1,0,0,1,0,.26c-.13.94-.67,1.45-1.47,1.43a1.4,1.4,0,0,1-1.36-1.53c0-1.43,0-2.87,0-4.3,0-1-.15-1.2-1.16-1.2H35.78c-.82,0-1.15.31-1.15,1.13,0,7.7,0,15.4,0,23.1,0,1,.2,1.14,1.41,1.14q17.78,0,35.56,0a.27.27,0,0,0,.09,0C72.85,82.2,73,82,73,80.89c0-3.83,0-7.67,0-11.5a4,4,0,0,1,.09-1,1.27,1.27,0,0,1,1.25-1,1.31,1.31,0,0,1,1.39,1,3.56,3.56,0,0,1,.14,1.3c0,4,0,8,0,12,0,.4.05.6.5.6a3.11,3.11,0,0,1,3.12,2,4,4,0,0,1-.69,4A5.06,5.06,0,0,1,76.24,90H42.34c-.55-.5-1-1-.64-1.84a1.55,1.55,0,0,1,1.75-.86c.29,0,.59,0,.88,0H74.26a3.2,3.2,0,0,0,1.94-.43,1.25,1.25,0,0,0,.64-1.41c-.18-.56-.73-.39-1.14-.39H31.64c-.86,0-1.13.54-.68,1.28a2.1,2.1,0,0,0,2,1c1.14,0,2.28,0,3.42,0,.74,0,1.43.06,1.75.86A1.56,1.56,0,0,1,37.43,90ZM46.87,29.85c0-2.43,0-4.41,0-6.4a.86.86,0,0,0-.73-1,7.35,7.35,0,0,1-4.44-3.22c-.41-.61-.66-.5-1.13-.12a21.45,21.45,0,0,1-5.92,3.37A26.75,26.75,0,0,1,22,23.79a3.65,3.65,0,0,0-4.33,3.86c0,2.46-.05,4.91,0,7.37a13.29,13.29,0,0,0,1.78,6.54C22.67,47,27.57,49.4,33.8,48.85A14.19,14.19,0,0,0,46.61,37.12C47.1,34.57,46.78,32,46.87,29.85ZM31.76,72c0-3.16,0-6.32,0-9.48,0-.61-.16-.9-.82-.94a13.64,13.64,0,0,1-3.09-.61,5.23,5.23,0,0,1-3.9-4.1c-.18-.81-.44-.88-1.15-.63-4,1.44-8.13,2.82-12.17,4.26a5.66,5.66,0,0,0-3.85,4.24C6,68.36,5.32,72,4.57,75.71c-.11.54,0,.77.57.77,2.08,0,4.16,0,6.23,0,.54,0,.73-.25.71-.76a5.12,5.12,0,0,1,0-1,1.35,1.35,0,0,1,1.84-1.09c.75.28.9.91.9,1.64,0,3.66,0,7.31,0,11,0,.81.24,1,1,1,3.77,0,7.55,0,11.32,0,.78,0,1-.12.81-1a3.2,3.2,0,0,1,2.85-4.09c.81-.06.94-.37.93-1.08C31.74,78.11,31.76,75,31.76,72ZM8,79.34H4.52c-.33,0-.67,0-.75.42a29.68,29.68,0,0,0-.89,5.44,1.8,1.8,0,0,0,1.73,2,65.07,65.07,0,0,0,6.84.14c.53,0,.63-.28.63-.72,0-2.17,0-4.34,0-6.5,0-.6-.25-.76-.8-.74C10.17,79.36,9.06,79.34,8,79.34Zm30.46-27c0-1.51,0-1.51-1.41-1.1l-.77.19a16.79,16.79,0,0,1-8.84-.27c-.64-.19-.83,0-.81.62,0,1.2,0,2.4,0,3.6a2.79,2.79,0,0,0,2.36,3,12.65,12.65,0,0,0,1.62.36c1.08.13,1.14.06,1.18-1A3.63,3.63,0,0,1,35.44,54c.44,0,.88,0,1.32,0C38.63,54,38.4,54.12,38.41,52.32Zm11.34-21h0V33c0,.42.18.55.61.47a2.3,2.3,0,0,0,2-2,2.18,2.18,0,0,0-1.83-2.22c-.53-.13-.77,0-.76.55S49.75,30.83,49.75,31.35Zm-35,0h0V29.7c0-.39-.13-.59-.59-.51a2.41,2.41,0,0,0-2,1.77,2.12,2.12,0,0,0,1.33,2.32c1,.46,1.23.33,1.23-.77C14.75,32.13,14.74,31.75,14.74,31.37Z"/><path class="cls-1" d="M58.24,69.6a4.37,4.37,0,0,1-4.56,4.33,4.46,4.46,0,0,1-4.32-4.43A4.57,4.57,0,0,1,53.87,65,4.46,4.46,0,0,1,58.24,69.6Zm-4.4-1.68a1.58,1.58,0,0,0-1.6,1.53,1.64,1.64,0,0,0,1.57,1.68,1.72,1.72,0,0,0,1.62-1.56A1.63,1.63,0,0,0,53.84,67.92Z"/></g></g></svg>