<svg xmlns="http://www.w3.org/2000/svg" viewBox="0 0 76.37 90"><defs><style>.cls-1{fill:#6532ba;}</style></defs><g id="Capa_2" data-name="Capa 2"><g id="Capa_1-2" data-name="Capa 1"><path class="cls-1" d="M38.25,47.43A16.88,16.88,0,0,1,27,43.66a18.86,18.86,0,0,1-5.73-8.77,39.57,39.57,0,0,1-1.78-15.52A27.08,27.08,0,0,1,21,11.1c2.51-6.32,7.13-9.91,14.13-11L35.7,0l.09,0h4.64a24.71,24.71,0,0,1,6.25,1.73A16.34,16.34,0,0,1,56,13.15a39.2,39.2,0,0,1,.85,13.37,33.72,33.72,0,0,1-2.38,10.12A16.73,16.73,0,0,1,38.58,47.43ZM38,2.91a20.06,20.06,0,0,0-2.32.14A14.22,14.22,0,0,0,23,14.64a40.65,40.65,0,0,0,0,15.85,22.74,22.74,0,0,0,2.42,6.78,13.29,13.29,0,0,0,11.1,7.14c.57,0,1.12.06,1.66.06,6.07,0,10.47-2.73,13.09-8.13,1.82-3.77,2.65-8,2.67-13.66a36.8,36.8,0,0,0-.64-7.7c-1.29-6-4.7-9.8-10.13-11.35A19,19,0,0,0,38,2.91Z"/><path class="cls-1" d="M39.8,90h-.9a80.8,80.8,0,0,1-27.13-4.27,71.47,71.47,0,0,1-8.95-3.86A4,4,0,0,1,.44,78.55c-.5-3.92-.88-9,.63-14.06A10.38,10.38,0,0,1,8.45,57,58.26,58.26,0,0,0,24,49.91a2.32,2.32,0,0,1,1.21-.4,1.31,1.31,0,0,1,1.13.61,1.3,1.3,0,0,1,.23,1,2,2,0,0,1-1,1.23A53.17,53.17,0,0,1,10.35,59.5c-4,1-6.24,3.57-6.93,7.72a35.79,35.79,0,0,0-.17,10.12,2.64,2.64,0,0,0,1.57,2.21,69,69,0,0,0,18.83,6.21A78.14,78.14,0,0,0,38,87.08c1,0,2.13,0,3.2-.06a75.48,75.48,0,0,0,29.46-7,4.21,4.21,0,0,0,2.6-4,38.73,38.73,0,0,0-.38-9.17,8.7,8.7,0,0,0-6.81-7.4A53.06,53.06,0,0,1,50.72,52.4c-.74-.48-.88-.86-.92-1.2a1.3,1.3,0,0,1,.6-1.43,1.42,1.42,0,0,1,.81-.28,1.69,1.69,0,0,1,.87.29,71.22,71.22,0,0,0,6.61,3.74,39.26,39.26,0,0,0,7.87,3.08C71.94,57.9,75,61.3,75.92,67a38.44,38.44,0,0,1,0,11.92,3.55,3.55,0,0,1-2.11,2.85A70.37,70.37,0,0,1,55,88.37,79.41,79.41,0,0,1,39.8,90Z"/></g></g></svg>