<svg xmlns="http://www.w3.org/2000/svg" viewBox="0 0 75 72.09"><defs><style>.cls-1{fill:#6532ba;}</style></defs><g id="Capa_2" data-name="Capa 2"><g id="Capa_1-2" data-name="Capa 1"><path class="cls-1" d="M54.5,72.09H37.42v0H6.5c-4.31,0-6.5-2.16-6.5-6.42V29.26C0,26.59.58,26,3.25,26H8.78c4.63,0,9.41,0,14.11,0a3.08,3.08,0,0,1,2.26.74A3.05,3.05,0,0,1,25.87,29c-.06,2.9-.05,5.87,0,8.74v1.77c0,2.67,1.16,3.82,3.83,3.82q7.82,0,15.61,0c2.68,0,3.83-1.14,3.84-3.81V38.47c0-3.14,0-6.4,0-9.59A2.5,2.5,0,0,1,51.93,26c6.48.05,13.28.05,20.22,0A2.5,2.5,0,0,1,75,28.82Q75,39.89,75,51q0,7.65,0,15.28a5.56,5.56,0,0,1-5.9,5.84ZM37.42,69.57h9q11.33,0,22.67,0a3.07,3.07,0,0,0,3.39-3.33V51q0-11.07,0-22.15a2.27,2.27,0,0,0,0-.29h-.31c-6.94,0-13.75,0-20.25,0h-.27c0,.07,0,.17,0,.32,0,3.22,0,6.48,0,9.65v1.06c0,4.07-2.28,6.31-6.36,6.32q-7.8,0-15.61,0c-4.08,0-6.33-2.26-6.35-6.33V37.77c0-2.88,0-5.86,0-8.8a2.32,2.32,0,0,0,0-.44,1.82,1.82,0,0,0-.41,0c-4.72.05-9.51,0-14.14,0H2.52v.72q0,18.19,0,36.41c0,2.85,1.08,3.9,4,3.9H37.42Z"/><path class="cls-1" d="M52.3,20.06H4.57c-1.38,0-2.29,0-2.85-.79s-.29-1.62.17-3l.89-2.68Q4.3,9,5.83,4.48C6.91,1.3,8.71,0,12.05,0H62.9c3.36,0,5.17,1.29,6.24,4.46,1.39,4.1,2.75,8.22,4.11,12.33.31.91.59,1.77,0,2.52s-1.42.75-2.43.75ZM37.5,17.55H70.85q-2-6.13-4.09-12.28C66,3.13,65.17,2.52,62.9,2.52q-25.42,0-50.85,0c-2.27,0-3.1.59-3.83,2.77Q6.68,9.84,5.17,14.38l-.9,2.68-.16.49H37.5Z"/><path class="cls-1" d="M35,37.59a3.4,3.4,0,0,1-2.41-.81c-1.18-1.09-1-2.65-.85-3.89a8.38,8.38,0,0,0,.09-1.15c0-.34-.05-.7-.09-1.06-.15-1.23-.33-2.77.69-3.88s2.49-1,3.57-.85a5.61,5.61,0,0,0,1.26.05l.17,0,.16,0a7,7,0,0,0,1.34,0,4.17,4.17,0,0,1,3.48.7c1.18,1.1,1,2.65.85,3.89a8.38,8.38,0,0,0-.09,1.15c0,.34.05.7.09,1.06.15,1.23.33,2.77-.69,3.88s-2.64,1-3.89.85a8.38,8.38,0,0,0-1.15-.09c-.34,0-.7,0-1.06.09A11.36,11.36,0,0,1,35,37.59Zm-.19-9.2a.85.85,0,0,0-.53.11c-.24.26-.13,1.2,0,1.89.05.44.1.88.11,1.29a10.73,10.73,0,0,1-.11,1.51c-.08.67-.18,1.52.06,1.74s1.19.13,1.88,0a11.91,11.91,0,0,1,1.29-.12A10.73,10.73,0,0,1,39,35c.68.08,1.52.18,1.75-.06s.12-1.19,0-1.88a9.77,9.77,0,0,1-.11-1.29,9.22,9.22,0,0,1,.1-1.5c.08-.68.18-1.53-.06-1.76s-1-.09-1.52,0a10.41,10.41,0,0,1-1.7.07,7.76,7.76,0,0,1-1.75-.06C35.42,28.42,35.08,28.39,34.8,28.39Z"/></g></g></svg>