<svg xmlns="http://www.w3.org/2000/svg" viewBox="0 0 79.97 80"><defs><style>.cls-1{fill:#6532ba;}</style></defs><g id="Capa_2" data-name="Capa 2"><g id="Capa_1-2" data-name="Capa 1"><path class="cls-1" d="M0,36V2C0,.35.34,0,1.92,0H52.3c1.55,0,1.91.36,1.91,1.88,0,1,0,2,0,3,0,.51.18.67.68.56a11.72,11.72,0,0,1,2.64-.27c1.43,0,1.83.39,1.83,1.8,0,4.21,0,8.42,0,12.64,0,.81.21,1.05,1,1,4.21,0,8.43,0,12.64,0,1.42,0,1.8.4,1.8,1.83A16.84,16.84,0,0,1,60.46,38.6a17.62,17.62,0,0,1-5.52-.11c-.64-.12-.74.14-.73.67,0,1.26,0,2.52,0,3.78,0,.68.22.87.88.87,5.07,0,10.14,0,15.21,0,1.61,0,1.95.35,1.95,1.92,0,7.92-.08,15.84,0,23.75A10.58,10.58,0,0,1,61.77,80q-25.64-.12-51.27,0A10.56,10.56,0,0,1,.07,71.09,11.47,11.47,0,0,1,0,69.33ZM49.13,7.58c2.39-1,2.39-1,2.39-3.47a2.66,2.66,0,0,1,0-.49c.11-.75-.22-1-1-.94q-23.47,0-46.93,0c-.79,0-1,.26-1,1q0,32.67,0,65.35a9.91,9.91,0,0,0,.25,2.31,7.7,7.7,0,0,0,7.89,5.93q21.62,0,43.22,0c.22,0,.48.11.66-.12C52,74,51.52,72.61,51.52,68.45q0-15,0-30a1.28,1.28,0,0,0-.84-1.35,16.62,16.62,0,0,1-9.08-11.36c-.29-1.13-.28-1.13-1.47-1.13h-33c-1.66,0-2-.33-2-2V7.18c0-1.71.32-2,2-2h39.2C48.84,5.15,48.84,5.15,49.13,7.58Zm-22,.26H9.16c-1.32,0-1.32,0-1.32,1.28V19.74c0,2.16,0,2.16,2.14,2.16q15.14,0,30.25,0c.77,0,1-.21,1-1a13.77,13.77,0,0,1,1-4.78A16.31,16.31,0,0,1,46,10.21a2.07,2.07,0,0,0,.32-2c-.13-.62-.83-.31-1.26-.31C39.07,7.83,33.09,7.84,27.11,7.84Zm42.44,50.5c0-3.62,0-7.24,0-10.86,0-.76-.19-1-1-1q-6.68,0-13.36,0c-.82,0-1,.23-1,1,0,7,0,13.9,0,20.84a19.59,19.59,0,0,0,.11,2.17,7.62,7.62,0,0,0,12,5.3,7.77,7.77,0,0,0,3.21-6.61C69.57,65.58,69.55,62,69.55,58.34Zm-12.88-43c0-2.15,0-4.3,0-6.44,0-.91-.08-1-1-.81a14.07,14.07,0,0,0,4.58,27.77,13.92,13.92,0,0,0,11.62-11.5c.18-1,.13-1-.9-1H58.36c-1.26,0-1.68-.44-1.68-1.71Q56.67,18.45,56.67,15.32Z"/><path class="cls-1" d="M61.83,9c0-2.49,0-5,0-7.48C61.84.46,62.3,0,63.41,0A16.85,16.85,0,0,1,79.82,14.34a16.12,16.12,0,0,1,.15,2.4,1.29,1.29,0,0,1-1.42,1.4H63.27c-1,0-1.43-.51-1.44-1.54C61.82,14.08,61.83,11.56,61.83,9Zm9,6.42c1.86,0,3.71,0,5.56,0,.63,0,.79-.24.7-.83A14.24,14.24,0,0,0,65.33,2.87c-.58-.08-.83.07-.82.7q0,5.55,0,11.11c0,.59.18.8.78.79C67.14,15.44,69,15.46,70.84,15.46Z"/><path class="cls-1" d="M27.1,58H47.37c1,0,1.57.39,1.67,1.14a1.32,1.32,0,0,1-1.18,1.54,7.09,7.09,0,0,1-.8,0H7.16a6.39,6.39,0,0,1-.88,0,1.29,1.29,0,0,1-1.12-1.36A1.25,1.25,0,0,1,6.27,58a5.11,5.11,0,0,1,.88,0Z"/><path class="cls-1" d="M27.19,63.11H47.06a5.15,5.15,0,0,1,.88,0,1.25,1.25,0,0,1,1.11,1.28,1.28,1.28,0,0,1-1.11,1.36,6.58,6.58,0,0,1-.89,0H7.15c-1.38,0-2-.38-2-1.3s.59-1.38,2-1.39Z"/><path class="cls-1" d="M11.69,42.51H16.6c1.06,0,1.54.47,1.54,1.51,0,3.32,0,6.65,0,10,0,1-.48,1.5-1.55,1.51H6.7C5.64,55.49,5.16,55,5.16,54q0-5,0-10c0-1,.48-1.49,1.55-1.5ZM15.46,49c0-1,0-2.09,0-3.14,0-.47-.16-.67-.65-.67-2.12,0-4.24,0-6.36,0-.45,0-.61.19-.61.63q0,3.18,0,6.36c0,.44.15.64.61.63q3.18,0,6.36,0c.49,0,.66-.2.65-.68C15.44,51.1,15.46,50.05,15.46,49Z"/><path class="cls-1" d="M23.23,32.2H39.72c1,0,1.53.44,1.6,1.22a1.3,1.3,0,0,1-1.18,1.45,5.77,5.77,0,0,1-.72,0H7.08a7.06,7.06,0,0,1-.8,0,1.3,1.3,0,0,1-1.12-1.36,1.25,1.25,0,0,1,1.1-1.28,5.18,5.18,0,0,1,.88,0Z"/><path class="cls-1" d="M22.59,27.05H38a4.39,4.39,0,0,1,.89,0A1.23,1.23,0,0,1,40,28.35a1.27,1.27,0,0,1-1.1,1.36,5.3,5.3,0,0,1-.8,0H7.08a5.3,5.3,0,0,1-.8,0,1.28,1.28,0,0,1-1.12-1.35,1.25,1.25,0,0,1,1.1-1.28,4.39,4.39,0,0,1,.89,0Z"/><path class="cls-1" d="M19.46,37.35H31.68a4.36,4.36,0,0,1,.81,0,1.25,1.25,0,0,1,1.1,1.28A1.29,1.29,0,0,1,32.48,40a5.31,5.31,0,0,1-.8,0H7.07a5.31,5.31,0,0,1-.8,0,1.3,1.3,0,0,1-1.11-1.37,1.24,1.24,0,0,1,1.11-1.27,4.36,4.36,0,0,1,.81,0Z"/><path class="cls-1" d="M34.83,42.51H47.14a4.26,4.26,0,0,1,.8,0,1.26,1.26,0,0,1,1.11,1.28,1.28,1.28,0,0,1-1.11,1.36,5.35,5.35,0,0,1-.8,0q-12.31,0-24.61,0a5.31,5.31,0,0,1-.8,0,1.28,1.28,0,0,1-1.11-1.36,1.26,1.26,0,0,1,1.11-1.28,4.26,4.26,0,0,1,.8,0Z"/><path class="cls-1" d="M34.83,47.66h12.3a5.31,5.31,0,0,1,.8,0A1.26,1.26,0,0,1,49.05,49,1.28,1.28,0,0,1,48,50.32a5.49,5.49,0,0,1-.81,0H22.54a5.49,5.49,0,0,1-.81,0A1.28,1.28,0,0,1,20.62,49a1.25,1.25,0,0,1,1.1-1.28,4.29,4.29,0,0,1,.8,0Z"/><path class="cls-1" d="M19.29,71H6.75a1.43,1.43,0,0,1-1.5-.84,1.32,1.32,0,0,1,1-1.83,5.48,5.48,0,0,1,.81,0H31.69a3.57,3.57,0,0,1,.8,0,1.24,1.24,0,0,1,1.1,1.28,1.28,1.28,0,0,1-1.11,1.35,5.35,5.35,0,0,1-.8,0Z"/><path class="cls-1" d="M27.11,55.5h-4.9c-1,0-1.61-.51-1.59-1.38s.58-1.3,1.58-1.31H32c1,0,1.61.51,1.59,1.38S33,55.49,32,55.5Z"/><path class="cls-1" d="M36.82,37.37a5.36,5.36,0,0,1,.8,0,1.33,1.33,0,0,1,0,2.64,11.38,11.38,0,0,1-1.43,0,1.34,1.34,0,1,1,0-2.68h.64Z"/><path class="cls-1" d="M36.74,55.49c-.24,0-.48,0-.72,0a1.34,1.34,0,0,1,0-2.67,12.34,12.34,0,0,1,1.36,0,1.34,1.34,0,0,1,0,2.67c-.24,0-.48,0-.72,0Z"/><path class="cls-1" d="M36.8,70.94a6.46,6.46,0,0,1-.88,0,1.34,1.34,0,0,1,0-2.64,11.53,11.53,0,0,1,1.44,0,1.31,1.31,0,0,1,1.38,1.34A1.32,1.32,0,0,1,37.36,71H36.8Z"/></g></g></svg>