<svg xmlns="http://www.w3.org/2000/svg" viewBox="0 0 82.43 82.37"><defs><style>.cls-1{fill:#4d3c6b;}</style></defs><g id="Capa_2" data-name="Capa 2"><g id="Capa_1-2" data-name="Capa 1"><path class="cls-1" d="M63.7,52.23H42.09a1.24,1.24,0,0,0-1.24,1.22V67.32a1.24,1.24,0,0,0,1.24,1.22H63.7A1.24,1.24,0,0,0,65,67.32V53.45A1.24,1.24,0,0,0,63.7,52.23Zm-12,13.83H43.33V54.72h8.33Zm10.8,0h-8.3V54.72h8.3Z"/><path class="cls-1" d="M81.18,79.89h-7.8v-33a10.39,10.39,0,0,0,1.13.07,7.7,7.7,0,0,0,7.92-7.49v0a1.23,1.23,0,0,0-.1-.41.38.38,0,0,0,0-.08,1.7,1.7,0,0,1-.15-.22L73.38,27.21V8.75h2.17a1.25,1.25,0,0,0,1.26-1.26V1.26A1.25,1.25,0,0,0,75.55,0H6.88A1.26,1.26,0,0,0,5.62,1.26V7.49A1.26,1.26,0,0,0,6.88,8.75H9.06V27.21L.26,38.7a1.79,1.79,0,0,0-.13.22l0,.08a1.55,1.55,0,0,0-.09.41v0a7.71,7.71,0,0,0,7.91,7.49,10.92,10.92,0,0,0,1.15-.07v33H1.26a1.24,1.24,0,1,0,0,2.48H81.18a1.24,1.24,0,1,0,0-2.48ZM74.51,44.45a5.35,5.35,0,0,1-5.23-3.75H79.76A5.38,5.38,0,0,1,74.51,44.45Zm-63-18.06V8.75H70.88V26.39H11.55Zm9.53,2.52h8.13l-1.59,6.46-.71,2.81H16.57Zm10,2.82.71-2.82H40v9.27H29.49Zm11.4-2.82h8.18L53,38.18H42.48Zm13.05,9.27-2.3-9.27h8.14l4.51,9.27ZM26.47,40.7a5.37,5.37,0,0,1-5.23,3.75A5.35,5.35,0,0,1,16,40.7Zm13.32,0a5.53,5.53,0,0,1-10.47,0Zm13.33,0a5.54,5.54,0,0,1-10.49,0Zm13.33,0A5.53,5.53,0,0,1,56,40.7Zm2.2-2.52-4.5-9.27h7.36l7.14,9.27ZM8.12,6.23V2.52H74.31V6.23Zm2.8,22.68h7.37l-4.5,9.27h-10ZM2.67,40.7H13.14a5.35,5.35,0,0,1-5.23,3.75A5.37,5.37,0,0,1,2.67,40.7Zm29.8,39.19H20V68.54H32.47Zm0-13.83H20V54.72H32.47ZM35,79.89V53.45a1.24,1.24,0,0,0-1.25-1.22h-15a1.24,1.24,0,0,0-1.24,1.22V79.89H11.55V46.08a7.72,7.72,0,0,0,3-2.6,8.16,8.16,0,0,0,13.33,0,8.15,8.15,0,0,0,13.32,0,8.14,8.14,0,0,0,13.33,0,7.94,7.94,0,0,0,6.65,3.48,8,8,0,0,0,6.68-3.45,7.48,7.48,0,0,0,3,2.6V79.89Z"/><path class="cls-1" d="M25.51,21.32V13.83a1.25,1.25,0,0,0-1.25-1.26H17.48a1.24,1.24,0,0,0-1.24,1.26v7.49a1.24,1.24,0,0,0,1.24,1.26h6.78A1.25,1.25,0,0,0,25.51,21.32ZM23,20.09H18.74v-5H23Z"/><path class="cls-1" d="M31.05,22.58h6.78a1.25,1.25,0,0,0,1.24-1.26V13.83a1.24,1.24,0,0,0-1.24-1.26H31.05a1.24,1.24,0,0,0-1.24,1.26v7.49A1.24,1.24,0,0,0,31.05,22.58Zm1.24-7.53h4.28v5H32.29Z"/><path class="cls-1" d="M44.61,22.58h6.77a1.25,1.25,0,0,0,1.26-1.26V13.83a1.25,1.25,0,0,0-1.26-1.26H44.61a1.25,1.25,0,0,0-1.26,1.26v7.49A1.25,1.25,0,0,0,44.61,22.58Zm1.25-7.53h4.28v5H45.86Z"/><path class="cls-1" d="M58.16,22.58H65a1.25,1.25,0,0,0,1.24-1.26V13.83A1.24,1.24,0,0,0,65,12.57H58.16a1.26,1.26,0,0,0-1.26,1.26v7.49A1.27,1.27,0,0,0,58.16,22.58Zm1.26-7.53h4.27v5H59.42Z"/></g></g></svg>