<svg xmlns="http://www.w3.org/2000/svg" xmlns:xlink="http://www.w3.org/1999/xlink" viewBox="0 0 261.12 135.69"><defs><style>.cls-1{fill:none;}.cls-2{fill:#020153;}.cls-3{clip-path:url(#clip-path);}.cls-4{fill:url(#Degradado_sin_nombre_3);}.cls-5{clip-path:url(#clip-path-2);}.cls-6{fill:url(#Degradado_sin_nombre_4);}</style><clipPath id="clip-path" transform="translate(0 30.39)"><polygon class="cls-1" points="136.31 0 133.31 4.38 137.71 10.51 140.05 7.09 146.16 7.09 140.74 14.76 145.11 20.86 159.85 0 136.31 0"/></clipPath><linearGradient id="Degradado_sin_nombre_3" x1="379.14" y1="2283.71" x2="379.87" y2="2283.71" gradientTransform="matrix(-44.71, 0, 0, 44.71, 17083.32, -102085.61)" gradientUnits="userSpaceOnUse"><stop offset="0" stop-color="#00e1ff"/><stop offset="1" stop-color="#4e7abc"/></linearGradient><clipPath id="clip-path-2" transform="translate(0 30.39)"><path class="cls-1" d="M127.1,24.82,114.58,7.09h6L147,43.9H141L130.37,28.41,119.73,43.9h-6.12ZM100.89,0l17.53,24.81L99.91,51h23.55l6.91-10.06L137.29,51h23.47L124.27,0Z"/></clipPath><linearGradient id="Degradado_sin_nombre_4" x1="379.14" y1="2283.58" x2="379.87" y2="2283.58" gradientTransform="matrix(-44.71, 0, 0, 44.71, 17089.26, -102064.68)" gradientUnits="userSpaceOnUse"><stop offset="0" stop-color="#00e1ff"/><stop offset="0.27" stop-color="#15c5ed"/><stop offset="1" stop-color="#4e7abc"/></linearGradient></defs><g id="Capa_2" data-name="Capa 2"><g id="Capa_1-2" data-name="Capa 1"><path class="cls-2" d="M0,91.61a13.38,13.38,0,0,1,3.94-9.8,13.7,13.7,0,0,1,10-3.94,13.66,13.66,0,0,1,10,3.94,14,14,0,0,1,0,19.61,13.62,13.62,0,0,1-10,3.88,13.65,13.65,0,0,1-10-3.88A13.39,13.39,0,0,1,0,91.61m20.07,0a6.12,6.12,0,1,0-6.15,6.27,6.16,6.16,0,0,0,6.15-6.27" transform="translate(0 30.39)"/><path class="cls-2" d="M31.49,78.57H39v2.61a8.72,8.72,0,0,1,7.13-3.31,9.58,9.58,0,0,1,7.07,2.9,9.67,9.67,0,0,1,2.9,7.13v16.76H48.6V89.88a4.79,4.79,0,1,0-9.57,0v14.78H31.49Z" transform="translate(0 30.39)"/><path class="cls-2" d="M67.67,94.34a6.53,6.53,0,0,0,6.38,4.58,6.42,6.42,0,0,0,5.16-2.38l7.25,1.69a13.8,13.8,0,0,1-12.52,7.07,14,14,0,0,1-10.15-3.88,13,13,0,0,1-4.06-9.81,13.38,13.38,0,0,1,3.94-9.8,13.6,13.6,0,0,1,9.86-3.94,13.37,13.37,0,0,1,9.8,3.94,13.2,13.2,0,0,1,4,9.8,12.2,12.2,0,0,1-.23,2.73Zm12-5.62a6.29,6.29,0,0,0-12,0Z" transform="translate(0 30.39)"/><path class="cls-2" d="M117.77,104.66V78.57h7.54v2.37a8.34,8.34,0,0,1,6.79-3,9,9,0,0,1,7.89,4c1.68-2.67,4.34-4,7.88-4A9.89,9.89,0,0,1,155,80.71a9.31,9.31,0,0,1,2.9,6.9v17h-7.54V89.59a4.4,4.4,0,0,0-4.35-4.7,4.51,4.51,0,0,0-4.41,4.7v15.07h-7.54V89.59a4.4,4.4,0,0,0-4.35-4.7,4.52,4.52,0,0,0-4.41,4.7v15.07Z" transform="translate(0 30.39)"/><path class="cls-2" d="M169.44,94.34a6.53,6.53,0,0,0,6.38,4.58A6.42,6.42,0,0,0,181,96.54l7.25,1.69a13.8,13.8,0,0,1-12.52,7.07,14,14,0,0,1-10.15-3.88,13,13,0,0,1-4.06-9.81,13.38,13.38,0,0,1,3.94-9.8,13.6,13.6,0,0,1,9.86-3.94,13.38,13.38,0,0,1,9.8,3.94,13.2,13.2,0,0,1,4,9.8,12.82,12.82,0,0,1-.23,2.73Zm12-5.62a6.29,6.29,0,0,0-12,0Z" transform="translate(0 30.39)"/><path class="cls-2" d="M211.14,80.31V62.62h7.48v42h-7.48v-1.79a11.92,11.92,0,0,1-16-1.45,14.05,14.05,0,0,1-3.54-9.81,14,14,0,0,1,3.54-9.8,11.83,11.83,0,0,1,16-1.5m-5.92,17.57a6.32,6.32,0,1,0-5.8-6.32,6,6,0,0,0,5.8,6.32" transform="translate(0 30.39)"/><rect class="cls-2" x="223.02" y="108.96" width="7.54" height="26.1"/><path class="cls-2" d="M253.64,80.31V78.57h7.48v26.09h-7.48v-1.79a11.9,11.9,0,0,1-16-1.45,14.05,14.05,0,0,1-3.54-9.81,14,14,0,0,1,3.54-9.8,11.82,11.82,0,0,1,16-1.5m-5.91,17.57a6.32,6.32,0,1,0-5.8-6.32,6,6,0,0,0,5.8,6.32" transform="translate(0 30.39)"/><polygon class="cls-2" points="107.55 119.04 114.67 108.96 105.86 108.96 103.16 112.9 107.55 119.04"/><polygon class="cls-2" points="96.51 108.96 87.76 108.96 96.69 121.6 87.18 135.06 96 135.06 101.22 127.46 106.44 135.06 115.18 135.06 96.51 108.96"/><g class="cls-3"><rect class="cls-4" x="129.78" y="-6.28" width="33.6" height="33.42" transform="translate(33.41 134.57) rotate(-43.71)"/></g><g class="cls-5"><rect class="cls-6" x="90.73" y="-13.96" width="79.22" height="78.91" transform="translate(18.5 127.52) rotate(-43.71)"/></g></g></g></svg>