<svg xmlns="http://www.w3.org/2000/svg" viewBox="0 0 59.99 60"><defs><style>.cls-1{fill:#fff;}</style></defs><g id="Capa_2" data-name="Capa 2"><g id="Capa_1-2" data-name="Capa 1"><path class="cls-1" d="M59.08,0H.92A.93.93,0,0,0,0,.92V59.08A.92.92,0,0,0,.92,60H59.08a.92.92,0,0,0,.91-.92V.92A.93.93,0,0,0,59.08,0ZM1.82,1.83H58.17V9.09H1.82ZM58.17,58.17H1.82V10.93H58.17Z"/><path class="cls-1" d="M53.66,4.8a1.07,1.07,0,0,0-.26.65A.91.91,0,1,0,55,4.83,1,1,0,0,0,53.66,4.8Z"/><path class="cls-1" d="M49.3,4.56a.91.91,0,0,0-.9.89.91.91,0,1,0,.9-.89Z"/><path class="cls-1" d="M43.66,4.83a.92.92,0,0,0-.25.62.91.91,0,0,0,.25.65.92.92,0,0,0,1.3,0,1,1,0,0,0,.26-.65A1.07,1.07,0,0,0,45,4.8,1,1,0,0,0,43.66,4.83Z"/><path class="cls-1" d="M14.89,28a4.4,4.4,0,1,0-4.4-4.4A4.4,4.4,0,0,0,14.89,28Zm0-7a2.58,2.58,0,1,1-2.57,2.56A2.57,2.57,0,0,1,14.89,21.07Z"/><path class="cls-1" d="M9,48a.92.92,0,0,0,0,1.84H20.79a.92.92,0,0,0,0-1.84H19.28V31.21a.89.89,0,0,0-.91-.89H9a.88.88,0,0,0-.91.89.9.9,0,0,0,.91.92h1.51V48Zm3.34-15.89h5.14V48H12.32Z"/><path class="cls-1" d="M27.84,26.39H50.1a.94.94,0,0,0,.92-.92.92.92,0,0,0-.92-.92H27.84a.91.91,0,0,0-.92.92A.94.94,0,0,0,27.84,26.39Z"/><path class="cls-1" d="M50.1,30.59H40.56a.92.92,0,0,0-.9.92.91.91,0,0,0,.9.92H50.1a.92.92,0,0,0,.92-.92A.94.94,0,0,0,50.1,30.59Z"/><path class="cls-1" d="M27.84,32.43h7.72a.92.92,0,0,0,.92-.92.93.93,0,0,0-.92-.92H27.84a.93.93,0,0,0-.92.92A.92.92,0,0,0,27.84,32.43Z"/><path class="cls-1" d="M27.84,38.47H50.1a.9.9,0,0,0,.92-.89.92.92,0,0,0-.92-.92H27.84a.92.92,0,0,0-.92.92A.89.89,0,0,0,27.84,38.47Z"/><path class="cls-1" d="M27.84,44.54H44.3a.89.89,0,0,0,.9-.89.91.91,0,0,0-.9-.92H27.84a.92.92,0,0,0-.92.92A.91.91,0,0,0,27.84,44.54Z"/></g></g></svg>