<svg xmlns="http://www.w3.org/2000/svg" viewBox="0 0 59.99 60"><defs><style>.cls-1{fill:#fff;}</style></defs><g id="Capa_2" data-name="Capa 2"><g id="Capa_1-2" data-name="Capa 1"><path class="cls-1" d="M51.19,8.8A30,30,0,0,0,8.77,51.23,30,30,0,0,0,60,30,29.77,29.77,0,0,0,51.19,8.8ZM49.91,49.94A28.18,28.18,0,0,1,10.05,10.09a28.17,28.17,0,0,1,39.86,0,28.16,28.16,0,0,1,0,39.85Z"/><path class="cls-1" d="M26.77,38.36l-5.15,5.16a3.66,3.66,0,0,1-2.57,1,3.62,3.62,0,0,1-2.56-1,3.65,3.65,0,0,1,0-5.16l5.13-5.12a.92.92,0,0,0-1.29-1.3l-5.14,5.13a5.44,5.44,0,0,0-1.59,3.86,5.45,5.45,0,0,0,9.31,3.85L28,39.66a.91.91,0,1,0-1.27-1.3Z"/><path class="cls-1" d="M37.06,15.22,31.9,20.37a.92.92,0,0,0,0,1.29.94.94,0,0,0,1.3,0l5.14-5.15a3.62,3.62,0,0,1,5.14,0,3.66,3.66,0,0,1,0,5.15l-5.14,5.13a.89.89,0,0,0,0,1.29.89.89,0,0,0,1.28,0l5.15-5.15a5.45,5.45,0,1,0-7.71-7.71Z"/><path class="cls-1" d="M22.91,15.22a5.46,5.46,0,0,0-7.72,7.71L37.06,44.78a5.4,5.4,0,0,0,7.71,0,5.47,5.47,0,0,0,0-7.71Zm20.57,28.3a3.67,3.67,0,0,1-5.14,0L16.49,21.66a3.65,3.65,0,0,1-1.07-2.59,3.57,3.57,0,0,1,1.07-2.56,3.49,3.49,0,0,1,2.56-1.05,3.53,3.53,0,0,1,2.57,1.05L43.48,38.36a3.67,3.67,0,0,1,0,5.16Z"/></g></g></svg>