<svg xmlns="http://www.w3.org/2000/svg" viewBox="0 0 50.11 60"><defs><style>.cls-1{fill:#6532ba;}</style></defs><g id="Capa_2" data-name="Capa 2"><g id="Capa_1-2" data-name="Capa 1"><path class="cls-1" d="M45.07,39.35c-.72-.35-1.5-.73-2.29-1.05A28.39,28.39,0,0,0,46,25.21C46,9.91,37.75,0,25.05,0S4.13,9.91,4.13,25.21A28.38,28.38,0,0,0,7.3,38.3c-.78.35-1.55.7-2.28,1.08a9.12,9.12,0,0,0-5,8.15V50a6.13,6.13,0,0,0,3.28,5.46C7.21,57.55,14.18,60,25.06,60s17.84-2.45,21.77-4.53A6.15,6.15,0,0,0,50.11,50V47.53A9.18,9.18,0,0,0,45.07,39.35ZM6,25.21C6,11,13.44,1.84,25.05,1.84S44.14,11,44.14,25.21a26.69,26.69,0,0,1-3.06,12.42c-.57-.22-1.16-.44-1.77-.63-1-.29-1.79-.56-2.55-.75-1-.27-2-.54-3.1-.73A7.41,7.41,0,0,1,31.78,32a16.28,16.28,0,0,0,5.28-8.1,2.34,2.34,0,0,0,1.29-.57A5.16,5.16,0,0,0,40,19.79c.2-2.3-.75-4.19-2.31-4.62a2.72,2.72,0,0,0-1.44,0,7.64,7.64,0,0,0-2.88-3.75c-2.17-1.4-4.95-1.4-8.27,0-3.38-1.45-6.17-1.48-8.32-.1a7.3,7.3,0,0,0-2.87,3.88,2.58,2.58,0,0,0-1.4,0c-1.57.43-2.52,2.32-2.31,4.62a5.16,5.16,0,0,0,1.59,3.53,2.37,2.37,0,0,0,1.3.57,16,16,0,0,0,5.3,8.1,7.77,7.77,0,0,1-1.88,3.64c-1.93.32-3.1.62-3.1.62-.8.22-1.62.46-2.59.75L9,37.63A26.56,26.56,0,0,1,6,25.21ZM17.07,37.38a.14.14,0,0,0,.1-.05.77.77,0,0,0,.17,0,.72.72,0,0,0,.15-.11l.08-.06a9.39,9.39,0,0,0,2.38-4,10.31,10.31,0,0,0,5.1,1.36A10.64,10.64,0,0,0,30.18,33a9.28,9.28,0,0,0,2.34,4,.08.08,0,0,1,.08,0,.63.63,0,0,0,.15.11l.18.08a.09.09,0,0,1,.08,0c.36,0,.73.13,1.08.21-.45,3.22-4.33,5.75-9,5.75s-8.52-2.48-9-5.64C16.34,37.49,16.69,37.44,17.07,37.38ZM13.93,17.09s.06,0,.09.05a1,1,0,0,0,.47.16.89.89,0,0,0,.91-.89A5.81,5.81,0,0,1,18,12.66c1.65-.92,3.91-.73,6.72.54a.87.87,0,0,0,.74,0c2.71-1.22,4.94-1.38,6.6-.46a5.91,5.91,0,0,1,2.69,3.7.19.19,0,0,1,0,.08.12.12,0,0,0,0,.08s0,0,0,.08a.76.76,0,0,0,.11.16c0,.06.06.08.08.11a.49.49,0,0,0,.15.14l.12.08c.05,0,.11,0,.18,0s.1,0,.16,0h0s.09,0,.14,0h.13s.05,0,.08,0h0a.4.4,0,0,1,.18-.1,1.27,1.27,0,0,1,1-.17c.58.17,1.11,1.25,1,2.7a3.43,3.43,0,0,1-1,2.3.47.47,0,0,1-.32.16.12.12,0,0,0-.1,0,.81.81,0,0,0-.77,0,.92.92,0,0,0-.5.6,14.25,14.25,0,0,1-5.16,8.15,8.85,8.85,0,0,1-10.6,0,14.46,14.46,0,0,1-5.17-8.15.86.86,0,0,0-.48-.6.83.83,0,0,0-.78,0,.11.11,0,0,0-.09,0,.47.47,0,0,1-.32-.16,3.34,3.34,0,0,1-.94-2.3c-.14-1.45.4-2.53,1-2.7A1.24,1.24,0,0,1,13.93,17.09ZM48.29,50A4.34,4.34,0,0,1,46,53.85c-3.08,1.62-9.88,4.34-20.93,4.34S7.19,55.47,4.13,53.85A4.31,4.31,0,0,1,1.82,50V47.53a7.33,7.33,0,0,1,4-6.53,34.44,34.44,0,0,1,5.47-2.24A21.74,21.74,0,0,1,13.82,38l.42-.11c.71,4,5.27,7.1,10.81,7.1s10.11-3.1,10.81-7.13c.13,0,.28.09.42.11.75.19,1.53.44,2.48.73A38.25,38.25,0,0,1,44.25,41a7.39,7.39,0,0,1,4,6.56Z"/></g></g></svg>