<svg xmlns="http://www.w3.org/2000/svg" viewBox="0 0 60.01 60"><defs><style>.cls-1{fill:#6532ba;}</style></defs><g id="Capa_2" data-name="Capa 2"><g id="Capa_1-2" data-name="Capa 1"><path class="cls-1" d="M54.55,0H5.45A5.46,5.46,0,0,0,0,5.45v49.1A5.44,5.44,0,0,0,5.45,60h49.1A5.45,5.45,0,0,0,60,54.55V5.45A5.46,5.46,0,0,0,54.55,0ZM5.45,1.81h49.1a3.65,3.65,0,0,1,3.64,3.64V9.1H45.47a.9.9,0,0,0-.91.89.92.92,0,0,0,.91.92H58.19V23.83L40.37,37.19a.94.94,0,0,0-.18,1.3,1,1,0,0,0,.73.35,1,1,0,0,0,.54-.16L58.19,26.1V53.42L41,48.93a2.79,2.79,0,0,0,.79-1.88c0-2.49-3.57-4.11-7.84-4.73,4-5.64,10.15-15.57,10.15-23a14.12,14.12,0,1,0-28.24,0c0,7.42,6.16,17.35,10.13,23a19.15,19.15,0,0,0-5,1.41l-19.2-5V10.91H14.55a.91.91,0,0,0,.9-.92.89.89,0,0,0-.9-.89H1.81V5.45A3.65,3.65,0,0,1,5.45,1.81ZM20,47.05c0-1.08,2.75-2.6,7.23-3,1.14,1.54,1.95,2.54,2.07,2.7a.88.88,0,0,0,.72.33.9.9,0,0,0,.7-.33c.12-.16.91-1.16,2.06-2.7,4.48.43,7.22,1.95,7.22,3,0,1.29-3.89,3.18-10,3.18S20,48.34,20,47.05Zm10-2.38C27.29,41.13,17.71,28,17.71,19.33a12.3,12.3,0,0,1,24.6,0C42.31,28,32.71,41.13,30,44.67ZM1.81,54.55V40.6L19,45.1a2.81,2.81,0,0,0-.86,1.95c0,1.67,1.64,3,4,3.8l-9.77,7.34h-7A3.65,3.65,0,0,1,1.81,54.55Zm52.74,3.64H15.45l9-6.72A27,27,0,0,0,30,52a22,22,0,0,0,9.08-1.73l19,5A3.67,3.67,0,0,1,54.55,58.19Z"/><path class="cls-1" d="M53.42,6.37a.92.92,0,0,0,.64-.27,1,1,0,0,0,.27-.65.81.81,0,0,0-.27-.62.9.9,0,0,0-1.55.62.92.92,0,0,0,.91.92Z"/><path class="cls-1" d="M47.69,6.37a.92.92,0,1,0-.9-.92A.91.91,0,0,0,47.69,6.37Z"/><path class="cls-1" d="M42,6.37a1,1,0,0,0,.63-.27.91.91,0,0,0,.27-.65.85.85,0,0,0-.27-.64.91.91,0,0,0-1.28,0,.84.84,0,0,0-.26.64.9.9,0,0,0,.26.65A.92.92,0,0,0,42,6.37Z"/><path class="cls-1" d="M30,12.44a7,7,0,1,0,7,7A7,7,0,0,0,30,12.44Zm0,12.2a5.18,5.18,0,1,1,5.16-5.18A5.19,5.19,0,0,1,30,24.64Z"/></g></g></svg>