<svg xmlns="http://www.w3.org/2000/svg" viewBox="0 0 60.04 60"><defs><style>.cls-1{fill:#fff;}</style></defs><g id="Capa_2" data-name="Capa 2"><g id="Capa_1-2" data-name="Capa 1"><path class="cls-1" d="M46.4,38.05H30.66a.89.89,0,0,0-.9.89V49a.9.9,0,0,0,.9.89H46.4a.91.91,0,0,0,.91-.89V38.94A.9.9,0,0,0,46.4,38.05ZM37.63,48.12H31.56V39.85h6.07Zm7.87,0h-6V39.85h6Z"/><path class="cls-1" d="M59.13,58.19H53.45V34.13a7.36,7.36,0,0,0,.82.06A5.61,5.61,0,0,0,60,28.73v0a1.23,1.23,0,0,0-.07-.29.22.22,0,0,0,0-.06l-.11-.16-6.4-8.37V6.37H55A.91.91,0,0,0,56,5.46V.92A.92.92,0,0,0,55,0H5a.92.92,0,0,0-.92.92V5.46A.92.92,0,0,0,5,6.37H6.6V19.82L.19,28.19a1.4,1.4,0,0,0-.1.16l0,.06A.88.88,0,0,0,0,28.7v0a5.61,5.61,0,0,0,5.76,5.46,7.72,7.72,0,0,0,.84-.06V58.19H.92A.91.91,0,1,0,.92,60H59.13a.91.91,0,1,0,0-1.81ZM54.27,32.38a3.89,3.89,0,0,1-3.8-2.73h7.62A3.91,3.91,0,0,1,54.27,32.38ZM8.41,19.22V6.37H51.63V19.22H8.41Zm6.94,1.84h5.93l-1.16,4.7-.52,2H12.07Zm7.29,2.06.51-2.06h6v6.75H21.48Zm8.3-2.06h6l1.67,6.75H30.94Zm9.51,6.75-1.68-6.75H44.7L48,27.81ZM19.28,29.65a3.91,3.91,0,0,1-3.81,2.73,3.91,3.91,0,0,1-3.82-2.73Zm9.71,0a4,4,0,0,1-7.63,0Zm9.7,0a4,4,0,0,1-7.64,0Zm9.71,0a4,4,0,0,1-7.63,0ZM50,27.81l-3.28-6.75h5.36l5.19,6.75ZM5.91,4.54V1.84H54.12v2.7ZM8,21.06h5.37l-3.27,6.75H2.75Zm-6,8.59H9.57a3.9,3.9,0,0,1-3.81,2.73A3.93,3.93,0,0,1,1.94,29.65ZM23.65,58.19h-9.1V49.93h9.1Zm0-10.07h-9.1V39.85h9.1Zm1.83,10.07V38.94a.9.9,0,0,0-.91-.89H13.65a.9.9,0,0,0-.91.89V58.19H8.41V33.56a5.55,5.55,0,0,0,2.2-1.89,5.94,5.94,0,0,0,9.71,0,5.93,5.93,0,0,0,9.7,0,5.92,5.92,0,0,0,9.71,0,5.92,5.92,0,0,0,9.71,0,5.5,5.5,0,0,0,2.19,1.89V58.19Z"/><path class="cls-1" d="M18.58,15.53V10.07a.92.92,0,0,0-.91-.92H12.73a.91.91,0,0,0-.9.92v5.46a.91.91,0,0,0,.9.92h4.94A.92.92,0,0,0,18.58,15.53Zm-1.81-.89H13.65V11h3.12Z"/><path class="cls-1" d="M22.61,16.45h4.95a.91.91,0,0,0,.9-.92V10.07a.91.91,0,0,0-.9-.92H22.61a.91.91,0,0,0-.9.92v5.46A.91.91,0,0,0,22.61,16.45ZM23.52,11h3.12v3.68H23.52Z"/><path class="cls-1" d="M32.5,16.45h4.92a.91.91,0,0,0,.92-.92V10.07a.91.91,0,0,0-.92-.92H32.5a.91.91,0,0,0-.92.92v5.46A.91.91,0,0,0,32.5,16.45ZM33.4,11h3.12v3.68H33.4Z"/><path class="cls-1" d="M42.36,16.45h5a.91.91,0,0,0,.9-.92V10.07a.91.91,0,0,0-.9-.92h-5a.92.92,0,0,0-.91.92v5.46A.92.92,0,0,0,42.36,16.45ZM43.28,11h3.11v3.68H43.28Z"/></g></g></svg>