<svg xmlns="http://www.w3.org/2000/svg" viewBox="0 0 61.91 60"><defs><style>.cls-1{fill:#fff;}</style></defs><g id="Capa_2" data-name="Capa 2"><g id="Capa_1-2" data-name="Capa 1"><path class="cls-1" d="M15,52.26a1.06,1.06,0,0,0-1,1.06,1.05,1.05,0,0,0,2.1,0A1.06,1.06,0,0,0,15,52.26Z"/><path class="cls-1" d="M46.87,52.26a1.06,1.06,0,0,0-1,1.06,1,1,0,1,0,1-1.06Z"/><path class="cls-1" d="M59.86,34.78a6.83,6.83,0,0,0-4.36-1.84c-.42-2.42-2-9.91-5.56-13.7a9.16,9.16,0,0,0-6.62-2.76H40.4A17.27,17.27,0,0,0,38.14,8.8s0-.06,0-.08-.06-.06-.07-.09a17.57,17.57,0,0,0-6.23-6.21.3.3,0,0,0-.08-.08.1.1,0,0,0-.08,0,17.24,17.24,0,0,0-17.24,0,.13.13,0,0,0-.08,0,.3.3,0,0,0-.08.08A17.43,17.43,0,0,0,8.05,8.63S8,8.66,8,8.72a.41.41,0,0,1,0,.08,17.39,17.39,0,0,0-2.25,7.68H.93A.93.93,0,0,0,0,17.4V50A4.07,4.07,0,0,0,4.08,54H8.37a6.7,6.7,0,0,0,13.32,0H40.22a6.7,6.7,0,0,0,13.31,0h4.3A4.09,4.09,0,0,0,61.91,50V42C61.91,40,61.91,36.84,59.86,34.78ZM48.58,20.52c3,3.2,4.51,9.77,5,12.36H43.84a3.39,3.39,0,0,1-3.38-3.39V18.35h2.86A7.36,7.36,0,0,1,48.58,20.52ZM14.48,4.46l.8,1.42a1,1,0,0,0,.83.44.92.92,0,0,0,.81-1.39l-.81-1.39a15.5,15.5,0,0,1,6-1.62V3.54a.93.93,0,1,0,1.86,0V1.92a15.5,15.5,0,0,1,6,1.62l-.8,1.39a.94.94,0,0,0,.34,1.28,1,1,0,0,0,.48.11,1,1,0,0,0,.8-.44l.81-1.42A15.72,15.72,0,0,1,36,8.86l-1.4.8a.92.92,0,0,0-.34,1.28.9.9,0,0,0,.8.48,1.06,1.06,0,0,0,.48-.14l1.39-.81a15.68,15.68,0,0,1,1.61,6H36.92a.94.94,0,0,0,0,1.87h1.61a15.44,15.44,0,0,1-1.61,6l-1.39-.81a1,1,0,0,0-1.28.36.92.92,0,0,0,.34,1.28L36,26a16.27,16.27,0,0,1-4.39,4.4L30.79,29a.94.94,0,0,0-1.62.94l.8,1.4a15.12,15.12,0,0,1-6,1.58V31.3a.93.93,0,1,0-1.86,0v1.58a15.12,15.12,0,0,1-6-1.58l.81-1.4a1,1,0,0,0-.35-1.28,1,1,0,0,0-1.29.34l-.8,1.42A16.27,16.27,0,0,1,10.09,26l1.41-.81a.92.92,0,0,0,.33-1.28,1,1,0,0,0-1.28-.36l-1.39.81a15.09,15.09,0,0,1-1.6-6h1.6a.94.94,0,1,0,0-1.87H7.56a15.32,15.32,0,0,1,1.6-6l1.39.81a1.06,1.06,0,0,0,.47.14.9.9,0,0,0,.81-.48.92.92,0,0,0-.33-1.28l-1.41-.8A15.72,15.72,0,0,1,14.48,4.46ZM15,58.14a4.84,4.84,0,1,1,4.83-4.82A4.84,4.84,0,0,1,15,58.14Zm17.93-6H21.62a6.7,6.7,0,0,0-13.2,0H4.08A2.23,2.23,0,0,1,1.86,50V49.7H6a1,1,0,0,0,.77-.42,1,1,0,0,0,.09-.89l-2.1-5.07a1,1,0,0,0-.87-.58h-2V41H33ZM1.88,47.81V44.63H3.29l1.32,3.18Zm0-8.66V18.35H5.68A17.39,17.39,0,0,0,7.93,26a.32.32,0,0,1,0,.09c0,.05.07.08.11.14a17.61,17.61,0,0,0,6.19,6.15l.08.08s.08,0,.11.06a17.32,17.32,0,0,0,17.18,0s.08,0,.11-.06a.3.3,0,0,0,.08-.08c.39-.22.76-.45,1.13-.7v7.44Zm45,19a4.84,4.84,0,1,1,4.83-4.82A4.84,4.84,0,0,1,46.87,58.14ZM60,47.81h-3.5l-1.32-3.18H60Zm0-5.07H53.8a.93.93,0,0,0-.77.42.92.92,0,0,0-.09.89L55,49.11a1,1,0,0,0,.88.59H60V50a2.21,2.21,0,0,1-2.2,2.2H53.47a6.7,6.7,0,0,0-13.2,0H34.82v-22A17.36,17.36,0,0,0,38,26.26a1.3,1.3,0,0,0,.12-.14s0-.06,0-.09a8.83,8.83,0,0,0,.43-.8v4.26a5.28,5.28,0,0,0,5.27,5.26H54.4a5.64,5.64,0,0,1,4.13,1.34C60,37.59,60,40.15,60,42Z"/><path class="cls-1" d="M44.53,39.15h-5a.93.93,0,1,0,0,1.86h5a.93.93,0,1,0,0-1.86Z"/><path class="cls-1" d="M14.6,13.62l8,4.62a1,1,0,0,0,.46.11.89.89,0,0,0,.93-1v-9a.93.93,0,0,0-1.86,0v7.44L15.54,12a.94.94,0,1,0-.94,1.62Z"/></g></g></svg>