<svg xmlns="http://www.w3.org/2000/svg" viewBox="0 0 76.99 60"><defs><style>.cls-1{fill:#fff;}</style></defs><g id="Capa_2" data-name="Capa 2"><g id="Capa_1-2" data-name="Capa 1"><path class="cls-1" d="M75.55,40.13a3.4,3.4,0,0,0-3.26-.42,4.74,4.74,0,0,0,.1-.79A3.53,3.53,0,0,0,70.83,36c-1.22-1-3-.52-5.57.52V10.32a.22.22,0,0,0,0-.11.62.62,0,0,0,0-.27.42.42,0,0,1,0-.14A1,1,0,0,0,65,9.52s0,0,0,0v0L55.59.35A1.06,1.06,0,0,0,54.77,0H26.49a1,1,0,0,0-.82.35l-9.33,9.1v0l0,0a.74.74,0,0,0-.21.28.26.26,0,0,1,0,.14,1.18,1.18,0,0,0-.06.27v23c-1.55-.07-3.19-.07-5-.07H1.18A1.17,1.17,0,0,0,0,34.31v21a1.16,1.16,0,0,0,1.18,1.14h9.6A83.49,83.49,0,0,0,35.09,60c12,0,26.52-2.67,39.05-12.6.28-.21,2.74-2,2.84-4.3A3.63,3.63,0,0,0,75.55,40.13Zm-65.74,14H2.34V35.45H9.81ZM69.42,37.84c.58.45.64.8.64,1A3.63,3.63,0,0,1,68.77,41c-.25.11-.51.21-.79.35-.82.31-1.72.72-2.72,1.11v-3.4C67.1,38.29,69,37.57,69.42,37.84ZM54.29,2.32l7,6.82H46.81L45.25,2.32Zm-15.89,0h4.46l1.56,6.82H36.84Zm-1.86,9.14h8.17v8.17H36.54ZM27,2.32h9L34.45,9.14H20Zm-8.66,9.14H34.2v9.35A1.17,1.17,0,0,0,35.38,22H45.87a1.16,1.16,0,0,0,1.18-1.17V11.46H62.94V43.38a84.6,84.6,0,0,1-8.79,2.74A4,4,0,0,0,54.37,45a6.14,6.14,0,0,0-1.52-4.89,5.73,5.73,0,0,0-4-1.52c-10.72.17-12.54-.87-14.65-2.11s-4.71-2.77-15.93-3.19ZM72.76,45.53c-23.86,18.9-55.27,10.52-60.61,8.9V35.49c15.93.07,18.58,1.59,20.91,3S37.55,41.1,49,40.89a3.54,3.54,0,0,1,2.21.86A3.9,3.9,0,0,1,52,44.84c0,.34-.09,1.38-2.13,2.21l-.06,0h0c-2.18.87-7,1.6-17.52.21a1.19,1.19,0,0,0-1.3,1,1.14,1.14,0,0,0,1,1.28,83.08,83.08,0,0,0,10.42.8,23.91,23.91,0,0,0,8.15-1.11A84,84,0,0,0,68.9,43.45c2.37-1,4.64-1.94,5.14-1.52s.62.83.61,1.07C74.61,44,73.28,45.15,72.76,45.53Z"/><circle class="cls-1" cx="6.08" cy="39.3" r="1.35"/></g></g></svg>