<svg xmlns="http://www.w3.org/2000/svg" viewBox="0 0 66.9 60"><defs><style>.cls-1{fill:#6532ba;}</style></defs><g id="Capa_2" data-name="Capa 2"><g id="Capa_1-2" data-name="Capa 1"><path class="cls-1" d="M62.86,3H58V1a1,1,0,0,0-2,0V3H48.52V1a1,1,0,0,0-2,0V3H39V1a1,1,0,0,0-2,0V3H29.46V1a1,1,0,0,0-2,0V3H19.92V1a1,1,0,0,0-2,0V3H10.4V1a1,1,0,0,0-2,0V3H4.06A4.05,4.05,0,0,0,0,7V55.94A4.08,4.08,0,0,0,4.06,60h58.8a4.07,4.07,0,0,0,4-4.06V7A4,4,0,0,0,62.86,3Zm0,55H4.06a2,2,0,0,1-2-2V14h.51a1,1,0,1,0,0-2H2V7a2,2,0,0,1,2-2H8.37V7a1,1,0,1,0,2,0V5h7.5V7a1,1,0,1,0,2,0V5h7.51V7a1,1,0,1,0,2,0V5H37V7a1,1,0,1,0,2,0V5h7.51V7a1,1,0,1,0,2,0V5H56V7a1,1,0,1,0,2,0V5h4.82a2,2,0,0,1,2,2v5h-.51a1,1,0,1,0,0,2h.51V55.94A2,2,0,0,1,62.86,58Z"/><path class="cls-1" d="M11.66,13a1,1,0,0,0-1-1H7.6a1,1,0,1,0,0,2h3.05A1,1,0,0,0,11.66,13Z"/><path class="cls-1" d="M31.94,14h3a1,1,0,1,0,0-2h-3a1,1,0,1,0,0,2Z"/><path class="cls-1" d="M15.72,14h3a1,1,0,1,0,0-2h-3a1,1,0,1,0,0,2Z"/><path class="cls-1" d="M48.16,14h3a1,1,0,0,0,0-2h-3a1,1,0,1,0,0,2Z"/><path class="cls-1" d="M43.09,12h-3a1,1,0,1,0,0,2h3a1,1,0,0,0,0-2Z"/><path class="cls-1" d="M59.31,12h-3a1,1,0,1,0,0,2h3a1,1,0,0,0,0-2Z"/><path class="cls-1" d="M26.87,12h-3a1,1,0,1,0,0,2h3a1,1,0,1,0,0-2Z"/><path class="cls-1" d="M29,32.44h9a1,1,0,0,0,1-1v-9a1,1,0,0,0-1-1H29a1,1,0,0,0-1,1v9A1,1,0,0,0,29,32.44Zm1-8.94h6.92v6.92H30Z"/><path class="cls-1" d="M55.17,21.49h-9a1,1,0,0,0-1,1v9a1,1,0,0,0,1,1h9a1,1,0,0,0,1-1v-9A1,1,0,0,0,55.17,21.49Zm-1,8.93H47.23V23.5h6.92Z"/><path class="cls-1" d="M20.7,39.72H11.75a1,1,0,0,0-1,1v8.94a1,1,0,0,0,1,1h9a1,1,0,0,0,1-1V40.74A1,1,0,0,0,20.7,39.72Zm-1,8.94H12.76V41.73h6.92Z"/><path class="cls-1" d="M55.17,39.72h-9a1,1,0,0,0-1,1v8.94a1,1,0,0,0,1,1h9a1,1,0,0,0,1-1V40.74A1,1,0,0,0,55.17,39.72Zm-1,8.94H47.23V41.73h6.92Z"/><path class="cls-1" d="M39.49,38a1,1,0,0,0-1.4.29l-.94,1.45H29a1,1,0,0,0-1,1v8.94a1,1,0,0,0,1,1h9a1,1,0,0,0,1-1V40.74s0,0,0-.06l.84-1.29A1,1,0,0,0,39.49,38ZM36.92,48.66H30V41.73h5.81l-1.94,3L33,43.42a1,1,0,0,0-1.41-.21,1,1,0,0,0-.23,1.41l1.76,2.44a1,1,0,0,0,.82.42h0a1,1,0,0,0,.82-.45l2.17-3.31Z"/></g></g></svg>