<svg xmlns="http://www.w3.org/2000/svg" viewBox="0 0 60.01 60"><defs><style>.cls-1{fill:#6532ba;}</style></defs><g id="Capa_2" data-name="Capa 2"><g id="Capa_1-2" data-name="Capa 1"><path class="cls-1" d="M59.9,25.35a1.56,1.56,0,0,0-.2-.27h0l-4.54-3.89A11.7,11.7,0,1,0,37.86,6.43L30.59.22a.9.9,0,0,0-1.17,0L19.23,8.91H10.92a.91.91,0,0,0-.92.92v7L.32,25.08h0a1.56,1.56,0,0,0-.2.27.36.36,0,0,0,0,.11,1,1,0,0,0-.07.32V59.11H0a1.22,1.22,0,0,0,.06.3s0,0,0,0l0,.09a2,2,0,0,0,.13.18.2.2,0,0,0,.08.08.38.38,0,0,0,.18.11L.59,60A1.12,1.12,0,0,0,.9,60H59.1a1,1,0,0,0,.31,0c.05,0,.07,0,.1-.06a.47.47,0,0,0,.19-.11l.07-.08a1,1,0,0,0,.13-.18l0-.09s0,0,0,0a.7.7,0,0,0,.06-.3h0V25.78a.79.79,0,0,0-.07-.32C59.93,25.4,59.91,25.4,59.9,25.35Zm-1.7,2.4V57.14L41,42.43Zm-.5-2L50,32.36V23.3a11.68,11.68,0,0,0,3.49-1.11Zm-9.4-24a9.89,9.89,0,1,1-9.88,9.9A9.92,9.92,0,0,1,48.3,1.82ZM30,2.11l7.14,6.07a5.25,5.25,0,0,0-.19.73H22Zm6.64,8.64c0,.3,0,.62,0,1A11.69,11.69,0,0,0,48.19,23.4V33.9L39.6,41.24l-9-7.69a.9.9,0,0,0-1.17,0l-9,7.69L11.82,33.9V10.75ZM19,42.43,1.82,57.14V27.75ZM10,32.36,2.31,25.78,10,19.2ZM3.37,58.19,30,35.44,56.63,58.19Z"/><path class="cls-1" d="M47.16,17.87a.89.89,0,0,0,.7.33H48a.88.88,0,0,0,.7-.49L54,7.48a.9.9,0,1,0-1.6-.83l-4.66,9-3.56-4.32a.91.91,0,0,0-1.4,1.16Z"/><path class="cls-1" d="M17.27,24.32h20a.93.93,0,0,0,.91-.92.91.91,0,0,0-.91-.91h-20a.9.9,0,0,0-.9.91A.92.92,0,0,0,17.27,24.32Z"/><path class="cls-1" d="M17.27,18.39H32.74a.91.91,0,0,0,0-1.81H17.27a.91.91,0,0,0,0,1.81Z"/><path class="cls-1" d="M17.27,30.21H42.74a.91.91,0,0,0,0-1.81H17.27a.91.91,0,0,0,0,1.81Z"/></g></g></svg>