<svg xmlns="http://www.w3.org/2000/svg" viewBox="0 0 25.06 25"><defs><style>.cls-1{fill:#fff;}</style></defs><g id="Capa_2" data-name="Capa 2"><g id="Capa_1-2" data-name="Capa 1"><path class="cls-1" d="M24.69,0H3.09a.39.39,0,0,0-.38.38V13.55a.39.39,0,0,0,.38.38.38.38,0,0,0,.38-.38v-9H24.31v19.7H3.47V21a.37.37,0,0,0-.38-.37.38.38,0,0,0-.38.37v3.63a.39.39,0,0,0,.38.38h21.6a.38.38,0,0,0,.37-.38V.38A.38.38,0,0,0,24.69,0ZM3.47,3.79v-3H24.31v3Z"/><path class="cls-1" d="M22.43,2a.36.36,0,0,0-.12.27.42.42,0,0,0,.12.27.41.41,0,0,0,.27.1.4.4,0,0,0,.26-.1.39.39,0,0,0,.11-.27A.35.35,0,0,0,23,2,.37.37,0,0,0,22.43,2Z"/><path class="cls-1" d="M20.61,1.89a.38.38,0,0,0-.38.39.38.38,0,0,0,.76,0A.38.38,0,0,0,20.61,1.89Z"/><path class="cls-1" d="M18.26,2a.35.35,0,0,0-.11.27.4.4,0,0,0,.11.27.41.41,0,0,0,.54,0,.46.46,0,0,0,.11-.27A.39.39,0,0,0,18.8,2,.38.38,0,0,0,18.26,2Z"/><path class="cls-1" d="M8,9.91a.76.76,0,0,0,.77-.76V7.64A.76.76,0,0,0,8,6.88H6.5a.76.76,0,0,0-.76.76V9.15a.77.77,0,0,0,.76.76ZM6.5,7.64H8V9.15H6.5Z"/><path class="cls-1" d="M6.12,21.53a.38.38,0,0,0,.38.38H8a.76.76,0,0,0,.76-.75V19.63A.76.76,0,0,0,8,18.88H7.26a.38.38,0,0,0-.38.38.37.37,0,0,0,.38.37H8v1.53H6.5A.38.38,0,0,0,6.12,21.53Z"/><path class="cls-1" d="M22.08,6.88h-3a.37.37,0,0,0-.37.38.38.38,0,0,0,.37.38h3a.39.39,0,0,0,.38-.38A.37.37,0,0,0,22.08,6.88Z"/><path class="cls-1" d="M16.78,6.88H11.1a.38.38,0,0,0-.39.38.39.39,0,0,0,.39.38h5.68a.39.39,0,0,0,.38-.38A.37.37,0,0,0,16.78,6.88Z"/><path class="cls-1" d="M15.27,9.53a.38.38,0,0,0,.38.38h4.16a.38.38,0,0,0,0-.76H15.65A.38.38,0,0,0,15.27,9.53Z"/><path class="cls-1" d="M11.1,9.91h2.65a.38.38,0,1,0,0-.76H11.1a.38.38,0,1,0,0,.76Z"/><path class="cls-1" d="M22.08,12.88H15.26a.38.38,0,0,0-.38.37.38.38,0,0,0,.38.39h6.82a.38.38,0,0,0,.38-.39A.38.38,0,0,0,22.08,12.88Z"/><path class="cls-1" d="M11.1,13.64H13a.38.38,0,0,0,.37-.39.38.38,0,0,0-.37-.37H11.1a.38.38,0,0,0-.39.37A.38.38,0,0,0,11.1,13.64Z"/><path class="cls-1" d="M19,15.92a.39.39,0,1,0,0-.77H17.17a.39.39,0,1,0,0,.77Z"/><path class="cls-1" d="M11.1,15.92h4.17a.39.39,0,0,0,0-.77H11.1a.39.39,0,1,0,0,.77Z"/><path class="cls-1" d="M16,19.26a.37.37,0,0,0,.37.37h5.69a.37.37,0,0,0,.38-.37.38.38,0,0,0-.38-.38H16.39A.38.38,0,0,0,16,19.26Z"/><path class="cls-1" d="M11.1,19.63h3a.37.37,0,0,0,.38-.37.38.38,0,0,0-.38-.38h-3a.38.38,0,0,0-.39.38A.37.37,0,0,0,11.1,19.63Z"/><path class="cls-1" d="M11.1,21.91h6.43a.38.38,0,1,0,0-.75H11.1a.38.38,0,1,0,0,.75Z"/><path class="cls-1" d="M4.55,21.43a.38.38,0,0,0,.35.22h0a.36.36,0,0,0,.35-.26l1.62-4.72H8.39a1.14,1.14,0,0,0,1.14-1.14V13.27a1.15,1.15,0,0,0-1.14-1.15H6.13A1.15,1.15,0,0,0,5,13.27v1.51L.26,16.4a.38.38,0,0,0,0,.71l3,1.33Zm1.19-8.16a.39.39,0,0,1,.39-.39H8.39a.38.38,0,0,1,.39.39v2.26a.4.4,0,0,1-.39.39H7.14l.48-1.4a.37.37,0,0,0-.09-.39.38.38,0,0,0-.39-.1l-1.4.49ZM6.65,15l-1.8,5.24L3.86,18a.35.35,0,0,0-.2-.18l-2.24-1Z"/></g></g></svg>