<svg xmlns="http://www.w3.org/2000/svg" viewBox="0 0 57.04 60"><defs><style>.cls-1{fill:#fff;}</style></defs><g id="Capa_2" data-name="Capa 2"><g id="Capa_1-2" data-name="Capa 1"><path class="cls-1" d="M56.18,0H.86A.86.86,0,0,0,0,.87v55a.86.86,0,0,0,.86.85H29.68l.69,2.64A.84.84,0,0,0,31,60a.51.51,0,0,0,.22,0,.91.91,0,0,0,.61-.23l3-3H56.18a.86.86,0,0,0,.86-.85V.87A.86.86,0,0,0,56.18,0ZM1.73,1.72H55.31V8.64H1.73Zm16,35.68L32.41,22.73A18.56,18.56,0,0,1,37,19.39a15.9,15.9,0,0,0,9.66,9.67,18.41,18.41,0,0,1-3.32,4.59L28.67,48.33ZM24,46.1,21,51a7.53,7.53,0,0,1-6-6l4.93-3Zm-7.73-9.67-7.67-2,6.86-6.88,12.2-2.46ZM48.58,22.57a17.69,17.69,0,0,1-1.19,4.88,14.13,14.13,0,0,1-8.78-8.78,17.64,17.64,0,0,1,4.87-1.2l5.67-.57ZM31.65,57.49l-2-7.7L41,38.43,38.53,50.61ZM55.31,55H36.55l3.38-3.38a.7.7,0,0,0,.23-.44l3.06-15,1.34-1.33a19.81,19.81,0,0,0,4-5.87.44.44,0,0,0,.09-.18s0-.06,0-.06a19.37,19.37,0,0,0,1.59-6L51,16a.92.92,0,0,0-.25-.72.88.88,0,0,0-.7-.23l-6.72.67a20,20,0,0,0-6,1.59h0l-.12.08a19.81,19.81,0,0,0-5.95,4.07l-1.34,1.34-15,3.05a.91.91,0,0,0-.43.26L6.3,34.24a.82.82,0,0,0-.22.82.86.86,0,0,0,.6.62l9.39,2.49,2.63,2.64-5,3a.86.86,0,0,0-.42.82,9.29,9.29,0,0,0,8.17,8.16h.07a.92.92,0,0,0,.75-.41l3-5.06L27.89,50l1.33,5H1.73V10.36H55.31Z"/><path class="cls-1" d="M51,4.57a.92.92,0,0,0-.24.61A1,1,0,0,0,51,5.8a1,1,0,0,0,.62.25.9.9,0,0,0,.6-.25.89.89,0,0,0,.26-.62.85.85,0,0,0-.26-.61A.92.92,0,0,0,51,4.57Z"/><path class="cls-1" d="M46.88,4.33a.84.84,0,0,0-.86.85.86.86,0,0,0,.86.87.87.87,0,0,0,.87-.87A.85.85,0,0,0,46.88,4.33Z"/><path class="cls-1" d="M41.52,4.57a.89.89,0,0,0-.26.61.93.93,0,0,0,.26.62.89.89,0,0,0,.61.25,1,1,0,0,0,.62-.25A1,1,0,0,0,43,5.18a.92.92,0,0,0-.24-.61A.93.93,0,0,0,41.52,4.57Z"/><path class="cls-1" d="M35.81,34a3.72,3.72,0,1,0-2.64-1.08A3.74,3.74,0,0,0,35.81,34ZM34.4,28.83a2,2,0,0,1,2.82,0,2,2,0,0,1,0,2.82,2,2,0,0,1-2.82,0A2,2,0,0,1,34.4,28.83Z"/><path class="cls-1" d="M31,35a3.73,3.73,0,1,0,0,5.26A3.74,3.74,0,0,0,31,35ZM29.8,39.09A2,2,0,1,1,27,36.25a2,2,0,0,1,2.83,0A2,2,0,0,1,29.8,39.09Z"/></g></g></svg>