<svg xmlns="http://www.w3.org/2000/svg" viewBox="0 0 62.79 60"><defs><style>.cls-1{fill:#fff;}</style></defs><g id="Capa_2" data-name="Capa 2"><g id="Capa_1-2" data-name="Capa 1"><path class="cls-1" d="M62.79,16.18a16.47,16.47,0,0,0-31.87-5.54L25.4,8.18a.78.78,0,0,0-.78,0L.56,18.91l0,0a.1.1,0,0,1-.08,0A.17.17,0,0,0,.4,19l-.1,0-.1.14a.16.16,0,0,0-.06.09.26.26,0,0,0-.07.14.32.32,0,0,0,0,.09.69.69,0,0,0,0,.25V48.31a1,1,0,0,0,.56.88L24.62,59.92s0,0,0,0A1.43,1.43,0,0,0,25,60h0a1.07,1.07,0,0,0,.32-.06s0,0,.06,0L49.46,49.19a1,1,0,0,0,.56-.88V32.52A16.62,16.62,0,0,0,62.79,16.18ZM25,10.07l5.33,2.4A15.75,15.75,0,0,0,30,14.54a13.93,13.93,0,0,0-.1,1.44L12.31,23.83l-9-4Zm-1,47.53L1.91,47.69V21.26l13.85,6.18,8.3,3.7Zm1-28.13L14.64,24.84,29.93,18a16.36,16.36,0,0,0,2.84,7.82.75.75,0,0,0,.08.14ZM48.12,47.69,26,57.6V31.14L33,28l-.5,5.12a.91.91,0,0,0,.35.82.94.94,0,0,0,.59.22,1,1,0,0,0,.3,0l6.14-2a2,2,0,0,1,1.27,0,16.45,16.45,0,0,0,6.82.73h.13ZM47.79,31a14.52,14.52,0,0,1-6-.65,4.06,4.06,0,0,0-2.44,0l-4.77,1.53L35,27.39a3.9,3.9,0,0,0-.65-2.63A14.56,14.56,0,0,1,44.38,2a14.57,14.57,0,0,1,16.5,14.2A14.67,14.67,0,0,1,47.79,31Z"/><path class="cls-1" d="M44.27,22.6a1,1,0,0,1-.7-.3l-4.1-4.09a1,1,0,0,1,1.42-1.42l3.38,3.39L53,11.45a1,1,0,1,1,1.41,1.41L45,22.3A1,1,0,0,1,44.27,22.6Z"/></g></g></svg>