<svg xmlns="http://www.w3.org/2000/svg" viewBox="0 0 54.81 60"><defs><style>.cls-1{fill:#6532ba;}</style></defs><g id="Capa_2" data-name="Capa 2"><g id="Capa_1-2" data-name="Capa 1"><path class="cls-1" d="M12.79,11.06A5.53,5.53,0,1,0,7.27,5.53,5.54,5.54,0,0,0,12.79,11.06Zm0-9.23a3.71,3.71,0,1,1-3.7,3.7A3.7,3.7,0,0,1,12.79,1.83Z"/><path class="cls-1" d="M43.72,12.33a4.81,4.81,0,1,0-4.8-4.8A4.79,4.79,0,0,0,43.72,12.33Zm0-7.77a3,3,0,1,1-3,3A3,3,0,0,1,43.72,4.56Z"/><path class="cls-1" d="M50.23,35.13a3,3,0,0,0,1.45.37,3.16,3.16,0,0,0,3.13-3.15v-13A5.36,5.36,0,0,0,49.45,14H38.13a5.36,5.36,0,0,0-5.35,5.37v13a3.15,3.15,0,0,0,3.13,3.15,3.53,3.53,0,0,0,1.31-.29V49.94a3.8,3.8,0,0,0,.54,1.89H30.05a.9.9,0,1,0,0,1.8H53.89a.9.9,0,1,0,0-1.8H49.71a3.89,3.89,0,0,0,.52-1.89ZM35.91,33.67a1.32,1.32,0,0,1-1.31-1.32v-13a3.53,3.53,0,0,1,3.53-3.54h4.81v.76a.91.91,0,1,0,1.82,0v-.76h4.69A3.54,3.54,0,0,1,53,19.4v13a1.31,1.31,0,0,1-2.62.1V20.15a.91.91,0,0,0-.9-.89h0a.91.91,0,0,0-.91.89V32H39V20.15a.91.91,0,0,0-1.82,0v12.2A1.31,1.31,0,0,1,35.91,33.67Zm8.73,16.27V36.61a.91.91,0,1,0-1.81,0V49.94a1.9,1.9,0,0,1-3.79,0V33.8h9.39V49.94a1.9,1.9,0,0,1-3.79,0Z"/><path class="cls-1" d="M43.85,29.57a.92.92,0,0,0,.91-.92v-8.5a.91.91,0,0,0-1.82,0v8.5A.91.91,0,0,0,43.85,29.57Z"/><path class="cls-1" d="M33.9,58.19H19.6a4.36,4.36,0,0,0,.75-2.43V38a3.78,3.78,0,0,0,1.88.54A3.53,3.53,0,0,0,25.76,35V19.59a6.16,6.16,0,0,0-6.16-6.18H6.18A6.17,6.17,0,0,0,0,19.59V35A3.55,3.55,0,0,0,3.55,38.5,3.71,3.71,0,0,0,5.27,38V55.76A4.37,4.37,0,0,0,6,58.19H.9a.89.89,0,0,0-.9.89A.91.91,0,0,0,.9,60h33a.91.91,0,0,0,.9-.92A.88.88,0,0,0,33.9,58.19ZM24,19.59V35a1.74,1.74,0,0,1-1.73,1.73,1.72,1.72,0,0,1-1.71-1.64V20.5a.92.92,0,0,0-.92-.91h0a.91.91,0,0,0-.92.91V34.67H13.87V22.26l4.57-7H19.6A4.38,4.38,0,0,1,24,19.59Zm-7.68-4.37L13,20.32l-3.32-5.1ZM3.55,36.69A1.73,1.73,0,0,1,1.82,35V19.59a4.38,4.38,0,0,1,4.36-4.37H7.46l4.59,7V34.67h-5V20.5a.91.91,0,1,0-1.81,0V35A1.73,1.73,0,0,1,3.55,36.69ZM7.08,55.76V36.47H18.55V55.76a2.42,2.42,0,1,1-4.83,0V40a.91.91,0,0,0-1.81,0V55.76a2.42,2.42,0,1,1-4.83,0Z"/></g></g></svg>