<svg xmlns="http://www.w3.org/2000/svg" viewBox="0 0 60 60"><defs><style>.cls-1{fill:#009548;}.cls-2{fill:#fff;fill-rule:evenodd;}</style></defs><g id="Capa_2" data-name="Capa 2"><g id="Capa_1-2" data-name="Capa 1"><circle class="cls-1" cx="30" cy="30" r="30"/><path class="cls-2" d="M14,42.15l.46-.89a2.81,2.81,0,0,0-2,.27,1.46,1.46,0,0,0-.61,1.78c.1.25.37.55.1.85a.48.48,0,0,1-.34.12H9.88l-.4.82h2.06A1.72,1.72,0,0,0,13.07,44a1.59,1.59,0,0,0-.19-1.29c-.31-.8.68-.68,1.11-.51Zm29.85,1.49H43.5l.48-.71H45.3L44.18,45c-1,.25-3.3.62-2.71-1.14a3.77,3.77,0,0,1,1.59-2.08A3.38,3.38,0,0,1,46,41.43l-.38.88h0a1.47,1.47,0,0,0-.61-.2,2,2,0,0,0-1.43.41,3.05,3.05,0,0,0-.8,1.08c-.24.53-.24.89.94.68l.2-.64Zm4-.37h-.71l.88-.92-.17.92Zm2.28.74H48.69l-.13,1.09h-1L47.74,44H46.49L45.44,45.1H44.35l3.8-3.84H49.2l-.3,2h1.62l-.36.71ZM36.07,42.15l.48-.89h-3l-.48.89h1l-1.73,3h1.12l1.66-3Zm-3.8-.89-1.35,2.28,0-2.28H29.7L27.63,45.1h.88l1.32-2.31V45.1h1.22l2.14-3.84Zm-6.92,0L23.11,45.1h1.12l2.21-3.84Zm-1.49,0-2.41,2.62L22,41.26H21L20.2,45.1h1.12L25,41.26Zm14.89,0H36.88l-2.1,3.84h.95l1.7-3h.34c.78,0,.62.49.22.76a1.39,1.39,0,0,1-.8.15h0l-.41,2.11h1L38,43.44a2.35,2.35,0,0,0,1.37-1.1c.18-.39.24-.91-.28-1l-.14,0h-.17Zm-18.82,0H18.06L16,45.1h.95l1.69-3h.34c.79,0,.63.49.22.76a1.37,1.37,0,0,1-.8.15h0l-.41,2.11H19l.17-1.66a2.33,2.33,0,0,0,1.36-1.1c.19-.39.25-.91-.28-1l-.13,0h-.17ZM41.3,43.54l.44-.78H40.38l.41-.65h1.46l.47-.85H40.21L38,45.1h2.61l.47-.85H39.6l.41-.71Zm-15.06.71.4-.71h1.29l.44-.78H27l.37-.65h1.49l.48-.85H26.85L24.64,45.1h2.61l.48-.85Zm-11.74,0,.41-.71h1.28l.45-.78H15.28l.37-.65h1.49l.48-.85H15.11L12.9,45.1h2.58l.51-.85Z"/><path class="cls-2" d="M48.08,16.49V16h.06c.29,0,.44.09.44.27s-.16.28-.44.28Zm-.38.94h.43v-.75h0l.38.75H49l-.41-.74a.42.42,0,0,0,.37-.41c0-.29-.25-.44-.73-.44H47.7v1.59Zm.54-2.63a1.84,1.84,0,1,1-1.84,1.83,1.84,1.84,0,0,1,1.84-1.83Zm0,.5a1.34,1.34,0,1,1-1.33,1.33,1.34,1.34,0,0,1,1.33-1.33Z"/><path class="cls-2" d="M33.58,17.69c4-.16,7.61.48,10.08,3.77h3.53c-2.56-5.84-8.66-6.71-13.27-6.58-7.8.21-17.23,3.6-20.88,11.63H41.72c-4.17,4.17-9.25,6.64-14.26,6.78s-9-.42-10.62-4.32l-4,0c3,8.5,16,8.38,23.31,5.25A20.74,20.74,0,0,0,46.88,23.85H18.42c3.87-4.45,10-5.94,15.16-6.16Z"/></g></g></svg>