<svg xmlns="http://www.w3.org/2000/svg" viewBox="0 0 23.33 25"><defs><style>.cls-1{fill:#fff;}</style></defs><g id="Capa_2" data-name="Capa 2"><g id="Capa_1-2" data-name="Capa 1"><g id="Line_stroke_cut_Ex" data-name="Line stroke cut Ex"><path class="cls-1" d="M9.58,5.83h.84v.84H9.58Z"/><path class="cls-1" d="M12.92,5.83h.83v.84h-.83Z"/><path class="cls-1" d="M11.67,9.58a1.14,1.14,0,0,0,1.25-1h-.84c0,.08-.15.21-.41.21s-.42-.13-.42-.21h-.83A1.14,1.14,0,0,0,11.67,9.58Z"/><path class="cls-1" d="M22.3,18l-1.59-1.59-.59.59,1.59,1.59a2.67,2.67,0,0,1,.79,1.91V23a1.15,1.15,0,0,1-1.15,1.15h-.93V22.08h.83v-.83H19.58v-7.5a.41.41,0,0,0-.41-.42H16.91l-2.38-1.51-.34-1.38.14-.07A2,2,0,0,0,15.42,8.6V8.33h.21a1.45,1.45,0,0,0,1.45-1.46V6.46A1.46,1.46,0,0,0,15.66,5a1.51,1.51,0,0,0,.17-.7V3a3,3,0,0,0-3-3H10.52a3,3,0,0,0-3,3V4.3a1.4,1.4,0,0,0,.18.7A1.46,1.46,0,0,0,6.25,6.46v.41A1.46,1.46,0,0,0,7.71,8.33h.21v.29A2,2,0,0,0,9,10.39l.13.06L8.8,11.82,6.43,13.33H4.17a.42.42,0,0,0-.42.42v1.49L2.21,16.79l.58.59,1-1v4.83H2.08v.83h.84v2.09H2A1.16,1.16,0,0,1,.83,23V20.46a2.68,2.68,0,0,1,.8-1.91L2,18.21l-.59-.59L1,18a3.5,3.5,0,0,0-1,2.5V23a2,2,0,0,0,2,2H21.35a2,2,0,0,0,2-2V20.46a3.49,3.49,0,0,0-1-2.5ZM10.42,14.17h2.5v2.91h-2.5Zm3.09-.84.71-.72,1.13.72ZM8.66,4.85a.62.62,0,0,1-.33-.55V4l1.52-.84a3.69,3.69,0,0,1,3.64,0L15,4v.3a.63.63,0,0,1-.63.63A.6.6,0,0,1,14,4.82l-1-.65a2.49,2.49,0,0,0-2.77,0l-1,.65a.61.61,0,0,1-.65,0Zm7.59,1.61v.42a.62.62,0,0,1-.62.62h-.21V5.83h.21A.63.63,0,0,1,16.25,6.46ZM10.52.83h2.29A2.19,2.19,0,0,1,15,3V3l-1.11-.61a4.52,4.52,0,0,0-4.45,0L8.33,3V3A2.19,2.19,0,0,1,10.52.83ZM7.71,7.5a.63.63,0,0,1-.63-.62V6.46a.63.63,0,0,1,.63-.63h.21V7.5Zm1,1.12V5.75a1.47,1.47,0,0,0,1-.23l1-.65a1.64,1.64,0,0,1,1.85,0l1,.65a1.45,1.45,0,0,0,1,.23V8.6a1.14,1.14,0,0,1-.62,1l-2,1a.64.64,0,0,1-.57,0l-2-1a1.13,1.13,0,0,1-.63-1ZM11,11.39a1.51,1.51,0,0,0,1.31,0l1.1-.56L13.71,12l-1.38,1.37H11L9.63,12l.28-1.12Zm-1.9,1.22.72.72H8ZM4.58,14.17h5V17.5a.42.42,0,0,0,.42.42h3.33a.42.42,0,0,0,.42-.42V14.17h5v7.08h-.42A3.33,3.33,0,0,0,15,24.17H13.75V22.08a.41.41,0,0,0-.42-.41H10a.41.41,0,0,0-.42.41v2.09H8.31A3.34,3.34,0,0,0,5,21.25H4.58Zm-.83,10V22.08H5a2.51,2.51,0,0,1,2.47,2.09Zm6.67,0V22.5h2.5v1.67Zm9.16,0H15.87a2.49,2.49,0,0,1,2.46-2.09h1.25Z"/><path class="cls-1" d="M5.42,15h.83v.83H5.42Z"/><path class="cls-1" d="M7.08,15H8.75v.83H7.08Z"/><path class="cls-1" d="M5.42,16.67H8.75v.83H5.42Z"/><path class="cls-1" d="M15,17.92h1.46a1.47,1.47,0,0,0,1.46-1.46v-1A.42.42,0,0,0,17.5,15H16a1.46,1.46,0,0,0-1.46,1.46v1A.42.42,0,0,0,15,17.92Zm.42-1.46a.63.63,0,0,1,.62-.63h1v.63a.62.62,0,0,1-.62.62h-1Z"/></g></g></g></svg>