<svg xmlns="http://www.w3.org/2000/svg" viewBox="0 0 23.18 25"><defs><style>.cls-1{fill:#fff;}</style></defs><g id="Capa_2" data-name="Capa 2"><g id="Capa_1-2" data-name="Capa 1"><path class="cls-1" d="M7.67,25H5.21A5.17,5.17,0,0,1,0,19.8V11.62A5,5,0,0,1,1.5,8C3.55,5.89,5.74,3.69,7.94,1.52A5.17,5.17,0,0,1,11.59,0h0a5.19,5.19,0,0,1,3.65,1.52C17.43,3.68,19.62,5.89,21.68,8a5.08,5.08,0,0,1,1.5,3.66V19.8A5.18,5.18,0,0,1,18.56,25,4.79,4.79,0,0,1,18,25H7.67ZM11.59,1A4.22,4.22,0,0,0,8.64,2.23C6.45,4.4,4.26,6.6,2.21,8.67A4,4,0,0,0,1,11.62V19.8A4.17,4.17,0,0,0,5.21,24H18.44a4.2,4.2,0,0,0,3.74-4.19V11.62a4.11,4.11,0,0,0-1.21-3c-2-2.07-4.24-4.27-6.43-6.43A4.22,4.22,0,0,0,11.59,1Zm3.17,20a11.42,11.42,0,0,1-1.19-.06,1.81,1.81,0,0,1-1.66-1.88c0-.22,0-.45,0-.66s0-.2,0-.3,0-.19,0-.29,0-.44,0-.66a1.82,1.82,0,0,1,1.72-1.91,17.8,17.8,0,0,1,2.31,0,1.74,1.74,0,0,1,1.68,1.64,12.67,12.67,0,0,1,0,2.39A1.73,1.73,0,0,1,16,20.94Q15.35,21,14.76,21Zm0-4.8c-.36,0-.72,0-1.06,0a.83.83,0,0,0-.79.92c0,.22,0,.44,0,.65v.29h0v.3c0,.21,0,.43,0,.64a.82.82,0,0,0,.77.91,11.43,11.43,0,0,0,2.19,0,.74.74,0,0,0,.76-.77,11.43,11.43,0,0,0,0-2.19.74.74,0,0,0-.76-.75C15.49,16.22,15.13,16.2,14.76,16.2ZM8.38,21a11.76,11.76,0,0,1-1.2-.06,1.81,1.81,0,0,1-1.66-1.86V17.14a1.81,1.81,0,0,1,1.7-1.89,14.15,14.15,0,0,1,2.35,0,1.74,1.74,0,0,1,1.67,1.65,11.93,11.93,0,0,1,0,2.39,1.71,1.71,0,0,1-1.65,1.66C9.18,21,8.77,21,8.38,21Zm0-4.81c-.37,0-.72,0-1.07,0a.84.84,0,0,0-.79.91v.94h0v1a.83.83,0,0,0,.76.89A11,11,0,0,0,9.5,20a.75.75,0,0,0,.75-.76,11.55,11.55,0,0,0,0-2.2.76.76,0,0,0-.76-.75C9.11,16.21,8.74,16.19,8.38,16.19Zm0-1.57a11.12,11.12,0,0,1-1.16-.06,1.81,1.81,0,0,1-1.72-1.92v-.93h0v-1a1.82,1.82,0,0,1,1.73-1.9,17.8,17.8,0,0,1,2.31,0,1.73,1.73,0,0,1,1.68,1.64,11.92,11.92,0,0,1,0,2.39,1.73,1.73,0,0,1-1.67,1.67A11.46,11.46,0,0,1,8.4,14.62ZM6.52,11.71v.92a.84.84,0,0,0,.81.94,12.86,12.86,0,0,0,2.15,0,.76.76,0,0,0,.77-.77,10.66,10.66,0,0,0,0-2.19.72.72,0,0,0-.75-.75,15.71,15.71,0,0,0-2.17,0,.84.84,0,0,0-.8.91v.94Zm8.24,2.9a11.81,11.81,0,0,1-1.21-.06,1.79,1.79,0,0,1-1.64-1.84c0-.23,0-.47,0-.7s0-.21,0-.31a2.44,2.44,0,0,0,0-.27c0-.23,0-.46,0-.69a1.81,1.81,0,0,1,1.7-1.88,13.18,13.18,0,0,1,2.35,0,1.74,1.74,0,0,1,1.67,1.66,13.51,13.51,0,0,1,0,2.38A1.73,1.73,0,0,1,16,14.56C15.56,14.6,15.15,14.61,14.76,14.61Zm0-4.8a9.65,9.65,0,0,0-1.08,0,.82.82,0,0,0-.79.9c0,.22,0,.44,0,.66s0,.19,0,.28h0c0,.11,0,.21,0,.32s0,.44,0,.66a.82.82,0,0,0,.75.88,11.75,11.75,0,0,0,2.22,0,.73.73,0,0,0,.75-.75,11.55,11.55,0,0,0,0-2.2.74.74,0,0,0-.76-.75A9.83,9.83,0,0,0,14.78,9.81Z"/></g></g></svg>