<svg xmlns="http://www.w3.org/2000/svg" viewBox="0 0 26.16 25"><defs><style>.cls-1{fill:#fff;}</style></defs><g id="Capa_2" data-name="Capa 2"><g id="Capa_1-2" data-name="Capa 1"><path class="cls-1" d="M26.16,6.74A6.87,6.87,0,0,0,18.38.06a6.94,6.94,0,0,0-5.5,4.37l-2.3-1a.31.31,0,0,0-.32,0L.23,7.88H.18v0L.12,8,.08,8l0,0a.09.09,0,0,0,0,0,.08.08,0,0,0,0,0,.36.36,0,0,0,0,.11V20.13a.41.41,0,0,0,.23.36l10,4.48h0l.14,0h0l.14,0s0,0,0,0l10-4.48a.41.41,0,0,0,.23-.36V13.55A6.92,6.92,0,0,0,26.16,6.74ZM10.42,4.2l2.22,1a5.94,5.94,0,0,0-.16.86,4,4,0,0,0,0,.6L5.13,9.93,1.37,8.25ZM10,24,.79,19.87v-11l5.78,2.57L10,13Zm.4-11.72L6.1,10.35,12.47,7.5a6.77,6.77,0,0,0,1.18,3.26l0,.06Zm9.63,7.59L10.82,24V13l2.94-1.3-.21,2.13a.38.38,0,0,0,.15.34.36.36,0,0,0,.24.09l.13,0,2.56-.82a.77.77,0,0,1,.52,0,6.89,6.89,0,0,0,2.85.3h.05Zm-.14-7a6,6,0,0,1-2.51-.27,1.77,1.77,0,0,0-1,0l-2,.64.18-1.86a1.63,1.63,0,0,0-.27-1.09,6.07,6.07,0,1,1,5.6,2.58Z"/><path class="cls-1" d="M22.24,3.5,15.8,10a.4.4,0,0,0,0,.57.35.35,0,0,0,.27.11.37.37,0,0,0,.28-.11L22.8,4.07a.4.4,0,0,0,0-.57A.4.4,0,0,0,22.24,3.5Z"/><path class="cls-1" d="M20.17,7.89A1.63,1.63,0,0,0,19.7,9a1.6,1.6,0,0,0,1.61,1.6,1.55,1.55,0,0,0,1.13-.47A1.59,1.59,0,0,0,22.91,9a1.61,1.61,0,0,0-2.74-1.14ZM21.88,9.6a.81.81,0,0,1-1.15,0A.78.78,0,0,1,20.5,9a.79.79,0,0,1,.23-.57.82.82,0,0,1,.58-.24.8.8,0,0,1,.57.24.76.76,0,0,1,.24.57A.75.75,0,0,1,21.88,9.6Z"/><path class="cls-1" d="M17.28,6.61a1.57,1.57,0,0,0,1.14-.47,1.61,1.61,0,0,0-2.27-2.27,1.62,1.62,0,0,0,0,2.27A1.56,1.56,0,0,0,17.28,6.61Zm-.57-2.18a.83.83,0,0,1,.57-.23.81.81,0,0,1,.58,1.39.82.82,0,0,1-1.15-1.16Z"/></g></g></svg>