<svg xmlns="http://www.w3.org/2000/svg" viewBox="0 0 25.15 25"><defs><style>.cls-1{fill:#fff;}</style></defs><g id="Capa_2" data-name="Capa 2"><g id="Capa_1-2" data-name="Capa 1"><path class="cls-1" d="M25.15,5.08a.36.36,0,0,0,0-.1s0,0,0,0l-.07-.11h0L20.32.11h0L20.21,0H6.82a.38.38,0,0,0-.38.38V2.73h-.1a.7.7,0,0,0-.7.7V4c-.19,0-.39.09-.58.15l-.27-.48a.7.7,0,0,0-1-.24L3,3.88a.7.7,0,0,0-.25,1L3,5.32a5.44,5.44,0,0,0-.41.42l-.48-.28a.73.73,0,0,0-1,.26l-.48.83a.73.73,0,0,0-.07.54.75.75,0,0,0,.33.43l.48.27c-.06.19-.11.38-.16.57H.71a.71.71,0,0,0-.71.7v1a.71.71,0,0,0,.71.71h.54c.05.19.1.38.16.56l-.48.28a.72.72,0,0,0-.26,1l.48.82a.72.72,0,0,0,1,.26l.48-.27c.13.15.27.28.41.42l-.28.47a.77.77,0,0,0-.07.54.79.79,0,0,0,.33.43l.84.48a.7.7,0,0,0,.53.07.79.79,0,0,0,.43-.33L5.06,15c.19,0,.39.11.58.14v.56a.7.7,0,0,0,.7.7h.1v8.26a.38.38,0,0,0,.38.37h18a.38.38,0,0,0,.38-.37V5.08Zm-1.3-.36H20.43V1.3ZM6.07,14.42a4.34,4.34,0,0,1-1-.28.38.38,0,0,0-.47.17l-.4.7-.73-.43.4-.7a.38.38,0,0,0-.09-.49A5.46,5.46,0,0,1,3,12.64a.35.35,0,0,0-.48-.09l-.7.39-.43-.73.7-.4a.4.4,0,0,0,.17-.48,4.1,4.1,0,0,1-.28-1A.39.39,0,0,0,1.57,10H.76V9.13h.81A.39.39,0,0,0,2,8.8a4.34,4.34,0,0,1,.28-1,.39.39,0,0,0-.17-.47l-.7-.4.43-.74.7.4A.35.35,0,0,0,3,6.46a6.15,6.15,0,0,1,.77-.76.37.37,0,0,0,.09-.49l-.4-.7.73-.42.4.7A.39.39,0,0,0,5,5a4.89,4.89,0,0,1,1-.29A.38.38,0,0,0,6.4,4.3V3.48h.85V4.3a.37.37,0,0,0,.32.37,4.89,4.89,0,0,1,1,.29.39.39,0,0,0,.47-.17l.4-.7.73.42-.4.7a.4.4,0,0,0,.09.49,5.54,5.54,0,0,1,.77.76.36.36,0,0,0,.49.09l.69-.4.43.74-.7.4a.4.4,0,0,0-.17.47,4.89,4.89,0,0,1,.29,1,.38.38,0,0,0,.38.33h.8V10h-.8a.38.38,0,0,0-.38.32,4.58,4.58,0,0,1-.29,1,.41.41,0,0,0,.17.48l.7.4-.43.73-.69-.39a.36.36,0,0,0-.49.09,5,5,0,0,1-.77.75.4.4,0,0,0-.09.49l.4.7L9.48,15l-.4-.7a.38.38,0,0,0-.47-.17,4.34,4.34,0,0,1-1,.28.37.37,0,0,0-.32.38v.8H6.4v-.8A.38.38,0,0,0,6.07,14.42Zm18.32,9.82H7.2V16.37h.1a.71.71,0,0,0,.71-.7v-.56c.19,0,.38-.09.57-.14l.27.47a.71.71,0,0,0,1,.26l.84-.48a.75.75,0,0,0,.33-.43.72.72,0,0,0-.08-.54l-.27-.47a5.55,5.55,0,0,0,.42-.42l.48.27a.62.62,0,0,0,.53.07.66.66,0,0,0,.42-.33l.49-.82a.72.72,0,0,0-.26-1l-.47-.28a5.12,5.12,0,0,0,.15-.56h.55a.7.7,0,0,0,.7-.71v-1a.7.7,0,0,0-.7-.7h-.55q-.06-.29-.15-.57l.47-.27A.75.75,0,0,0,13,7.09.69.69,0,0,0,13,6.55l-.49-.83a.62.62,0,0,0-.42-.32.66.66,0,0,0-.53.06l-.48.28a4.16,4.16,0,0,0-.42-.42l.27-.48a.7.7,0,0,0-.25-1l-.84-.47a.7.7,0,0,0-1,.24l-.27.48L8,4V3.43a.7.7,0,0,0-.71-.7H7.2v-2H19.67V5.1a.38.38,0,0,0,.38.39h4.34Z"/><path class="cls-1" d="M10.19,9.55a3.37,3.37,0,1,0-3.37,3.37A3.37,3.37,0,0,0,10.19,9.55Zm-6,0a2.61,2.61,0,1,1,2.61,2.6A2.6,2.6,0,0,1,4.21,9.55Z"/><path class="cls-1" d="M21.71,14.05l-.22-.19s0,0,0,0,0,0,0,0a5.31,5.31,0,0,0-7.25.23,5.32,5.32,0,0,0,0,7.5,4.53,4.53,0,0,0,.84.69h0a4.61,4.61,0,0,0,1,.52,5.24,5.24,0,0,0,1.9.35,5.25,5.25,0,0,0,3.75-1.56,5.71,5.71,0,0,0,.81-1,0,0,0,0,1,0,0,.06.06,0,0,1,0,0A5.31,5.31,0,0,0,21.71,14.05Zm.34,5.7-2-1.14a2.4,2.4,0,0,0,.14-.8,2.3,2.3,0,0,0-.5-1.43l1.51-1.71A4.53,4.53,0,0,1,22.05,19.75Zm-5.17-.87a1.53,1.53,0,0,1,0-2.15A1.55,1.55,0,0,1,18,16.29a1.51,1.51,0,0,1,1.07.44,1.53,1.53,0,0,1,.45,1.08,1.52,1.52,0,0,1-2.59,1.07Zm2.27-3a2,2,0,0,0-.81-.31V13.28a4.5,4.5,0,0,1,2.33.88Zm-4.41-1.29a4.5,4.5,0,0,1,2.83-1.31v2.29a2.16,2.16,0,0,0-1.22.63,2.26,2.26,0,0,0,0,3.21.34.34,0,0,0,.06.06l-1.26,1.91c-.14-.11-.27-.23-.41-.36A4.56,4.56,0,0,1,14.74,14.59Zm5.85,6.92a4.55,4.55,0,0,1-4.26.54,5.12,5.12,0,0,1-.53-.25l1.25-1.91a2.34,2.34,0,0,0,.9.19,2.27,2.27,0,0,0,1.61-.67.67.67,0,0,0,.14-.15l2,1.16a5.48,5.48,0,0,1-.5.6A4.55,4.55,0,0,1,20.59,21.51Z"/><path class="cls-1" d="M15.18,7.35a.38.38,0,0,0,.38.39h7.32a.38.38,0,0,0,.38-.39A.38.38,0,0,0,22.88,7H15.56A.38.38,0,0,0,15.18,7.35Z"/><path class="cls-1" d="M22.88,8.87H19a.38.38,0,0,0-.38.38.37.37,0,0,0,.38.38h3.91a.37.37,0,0,0,.38-.38A.38.38,0,0,0,22.88,8.87Z"/><path class="cls-1" d="M15.56,9.63H17.2a.37.37,0,0,0,.38-.38.38.38,0,0,0-.38-.38H15.56a.38.38,0,0,0-.38.38A.37.37,0,0,0,15.56,9.63Z"/><path class="cls-1" d="M15.56,11.53h5.8a.38.38,0,1,0,0-.76h-5.8a.38.38,0,0,0-.38.37A.38.38,0,0,0,15.56,11.53Z"/></g></g></svg>