<svg xmlns="http://www.w3.org/2000/svg" viewBox="0 0 25 25"><defs><style>.cls-1{fill:#fff;}</style></defs><g id="Capa_2" data-name="Capa 2"><g id="Capa_1-2" data-name="Capa 1"><path class="cls-1" d="M22.58,13.52V5.61a2.82,2.82,0,1,0-3.23-2.79H0V19H12.12a6.45,6.45,0,1,0,10.46-5.43ZM22.18.81a2,2,0,1,1-2,2A2,2,0,0,1,22.18.81ZM.81,3.63H19.47a2.82,2.82,0,0,0,.45.88L17.45,7a1.09,1.09,0,0,0-1,0l-.82-.82a1.1,1.1,0,0,0,.13-.51,1.21,1.21,0,0,0-2.42,0,1.1,1.1,0,0,0,.12.51l-2,2a1.18,1.18,0,0,0-.52-.13A1.21,1.21,0,1,0,12.1,9.27,1.23,1.23,0,0,0,12,8.76l2-2a1.14,1.14,0,0,0,.52.12A1.1,1.1,0,0,0,15,6.73l.82.82a1.1,1.1,0,0,0-.12.51,1.21,1.21,0,1,0,2.42,0A1.1,1.1,0,0,0,18,7.55l2.47-2.47a2.8,2.8,0,0,0,1.28.53V13a6.41,6.41,0,0,0-8.06,1.33V12.5H11.29v4.84h.92a5.28,5.28,0,0,0-.09.81H.81Zm16.13,4a.41.41,0,0,1,0,.81.41.41,0,1,1,0-.81Zm-2.83-2a.41.41,0,1,1,.81,0,.41.41,0,0,1-.81,0ZM11.29,9.27a.41.41,0,1,1-.4-.4A.4.4,0,0,1,11.29,9.27Zm7.26,12.5a3.23,3.23,0,1,1,3.22-3.22A3.23,3.23,0,0,1,18.55,21.77ZM12.9,15.43a7.18,7.18,0,0,0-.48,1.1H12.1V13.31h.8Zm5.25-2.51v1.62a4,4,0,0,0-3.63,4,3.94,3.94,0,0,0,.36,1.65l-1.4.81a5.5,5.5,0,0,1-.58-2.46,5.66,5.66,0,0,1,5.25-5.63Zm.4,11.27a5.62,5.62,0,0,1-4.67-2.48l1.4-.81a4,4,0,0,0,6.54,0l1.4.81A5.63,5.63,0,0,1,18.55,24.19ZM23.62,21l-1.4-.81a3.94,3.94,0,0,0,.36-1.65,4,4,0,0,0-3.63-4V12.92A5.63,5.63,0,0,1,23.62,21Z"/><path class="cls-1" d="M18.55,16.13A2.42,2.42,0,1,0,21,18.55,2.42,2.42,0,0,0,18.55,16.13Zm0,4a1.61,1.61,0,1,1,1.61-1.61A1.61,1.61,0,0,1,18.55,20.16Z"/><path class="cls-1" d="M1.61,4.44h.81v.8H1.61Z"/><path class="cls-1" d="M3.23,4.44H8.87v.8H3.23Z"/><path class="cls-1" d="M1.61,6.05h.81v.8H1.61Z"/><path class="cls-1" d="M3.23,6.05H8.87v.8H3.23Z"/><path class="cls-1" d="M1.61,7.66h.81v.81H1.61Z"/><path class="cls-1" d="M3.23,7.66H8.87v.81H3.23Z"/><path class="cls-1" d="M1.61,9.27h.81v.81H1.61Z"/><path class="cls-1" d="M3.23,9.27H8.87v.81H3.23Z"/><path class="cls-1" d="M1.61,17.34H4v-4H1.61Zm.81-3.23h.81v2.42H2.42Z"/><path class="cls-1" d="M4.84,17.34H7.26V14.11H4.84Zm.81-2.42h.8v1.61h-.8Z"/><path class="cls-1" d="M8.06,17.34h2.42V10.89H8.06Zm.81-5.65h.81v4.84H8.87Z"/></g></g></svg>