<svg xmlns="http://www.w3.org/2000/svg" viewBox="0 0 25 25"><defs><style>.cls-1{fill:#fff;}</style></defs><g id="Capa_2" data-name="Capa 2"><g id="Capa_1-2" data-name="Capa 1"><path class="cls-1" d="M24.62,21.68H24V11a.38.38,0,0,0-.38-.39H21.31a.38.38,0,0,0-.38.39V21.68H19.42v-8.5a.39.39,0,0,0-.39-.37H16.76a.38.38,0,0,0-.38.37v8.5H14.87V18.53a.37.37,0,0,0-.38-.37H12.21a.36.36,0,0,0-.37.37v3.15H10.51v-5L12.22,16a1.46,1.46,0,0,0,1.13.57,1.42,1.42,0,0,0,1.42-1.43,1.44,1.44,0,0,0-.24-.79l2.76-3.19a1.41,1.41,0,0,0,.61.15,1.43,1.43,0,0,0,1.42-1.42,1.36,1.36,0,0,0,0-.29l2.12-1.09a1.4,1.4,0,0,0,1,.46A1.43,1.43,0,1,0,21,7.57a1.35,1.35,0,0,0,0,.29L18.94,9a1,1,0,0,0-.23-.19V5.07a.38.38,0,0,0,0-.1,0,0,0,0,0,0,0,.15.15,0,0,0-.07-.1h0L13.88.1h0L13.77,0h0l-.11,0H.38A.38.38,0,0,0,0,.37V24.62A.38.38,0,0,0,.38,25h18a.38.38,0,0,0,.38-.38V22.45h5.91a.39.39,0,0,0,0-.77ZM22.45,6.91a.66.66,0,1,1-.67.66A.67.67,0,0,1,22.45,6.91Zm-5.31,6.65h1.52v8.12H17.14ZM12.6,18.92h1.51v2.76H12.6Zm.75-3.09a.66.66,0,1,1,.66-.66A.66.66,0,0,1,13.35,15.83Zm4.55-5.25a.66.66,0,1,1,0-1.32.66.66,0,0,1,0,1.32Zm-.48-5.87H14V1.29ZM18,24.25H.75V.75H13.23V5.09a.38.38,0,0,0,.38.39H18v3H17.9a1.44,1.44,0,0,0-1.43,1.43,1.37,1.37,0,0,0,.25.79L14,13.89a1.56,1.56,0,0,0-.61-.14,1.43,1.43,0,0,0-1.42,1.42c0,.05,0,.1,0,.15l-1.43.56V7.57a.38.38,0,0,0-.76,0v14.5a.38.38,0,0,0,.38.38H18Zm3.74-2.57V11.34H23.2V21.68Z"/><path class="cls-1" d="M2.87,8h.46a.38.38,0,0,0,0-.75H2.87a.38.38,0,1,0,0,.75Z"/><path class="cls-1" d="M2.87,10.61h.46a.39.39,0,0,0,0-.77H2.87a.39.39,0,0,0-.38.38A.38.38,0,0,0,2.87,10.61Z"/><path class="cls-1" d="M7.79,7.2H5A.38.38,0,0,0,5,8H7.79a.38.38,0,1,0,0-.75Z"/><path class="cls-1" d="M7.79,9.84H5a.38.38,0,0,0-.37.38.38.38,0,0,0,.37.39H7.79a.39.39,0,0,0,.39-.39A.4.4,0,0,0,7.79,9.84Z"/><path class="cls-1" d="M2.87,13.26H7a.39.39,0,0,0,0-.77H2.87a.39.39,0,0,0,0,.77Z"/><path class="cls-1" d="M7.79,15.15H2.87a.38.38,0,0,0,0,.76H7.79a.38.38,0,1,0,0-.76Z"/><path class="cls-1" d="M6.28,17.8H2.87a.38.38,0,0,0-.38.38.39.39,0,0,0,.38.39H6.28a.39.39,0,0,0,.38-.39A.38.38,0,0,0,6.28,17.8Z"/></g></g></svg>