<svg xmlns="http://www.w3.org/2000/svg" viewBox="0 0 25.02 25"><defs><style>.cls-1{fill:#fff;}</style></defs><g id="Capa_2" data-name="Capa 2"><g id="Capa_1-2" data-name="Capa 1"><path class="cls-1" d="M7.4,1.65l1.37.46A2.15,2.15,0,0,1,10.42,4.4c0,5.11,0,10.22,0,15.33,0,.45.07.62.57.59.87-.05,1.75,0,2.63,0A1.33,1.33,0,0,0,15.1,18.8c0-1.47,0-2.93,0-4.4a.75.75,0,0,1,.88-.84.74.74,0,0,1,.67.82c0,1.58.05,3.16,0,4.73a2.83,2.83,0,0,1-2.9,2.76c-1,0-2,0-3,0-.27,0-.37.07-.36.35a4.77,4.77,0,0,1,0,1.07,2,2,0,0,1-2.6,1.63c-2.13-.68-4.26-1.39-6.37-2.12a2,2,0,0,1-1.4-2V2.17A2.08,2.08,0,0,1,2.19,0H13.71a2.86,2.86,0,0,1,2.95,2.92c0,1.49,0,3,0,4.49,0,.57-.31.91-.79.91s-.77-.33-.77-.91c0-1.43,0-2.87,0-4.3,0-1.06-.49-1.54-1.55-1.54H7.4ZM1.56,11.47c0,3,0,6.09,0,9.13a.71.71,0,0,0,.55.79l5.91,2c.54.18.82,0,.83-.58s0-1.14,0-1.71q0-8.29,0-16.59a.83.83,0,0,0-.67-.91C6.31,3,4.44,2.31,2.56,1.68c-.75-.25-1-.07-1,.72Z"/><path class="cls-1" d="M22.35,10.15c-.91-.9-1.73-1.7-2.54-2.52a.77.77,0,0,1,.07-1.25.73.73,0,0,1,1,.11c1.31,1.29,2.61,2.58,3.9,3.89a.74.74,0,0,1,0,1.13c-1.28,1.29-2.57,2.58-3.87,3.85a.76.76,0,0,1-1.13,0,.77.77,0,0,1,0-1.13l2.45-2.45c-.12-.16-.27-.08-.4-.08H14.47a.81.81,0,0,1-.91-.63c-.1-.54.26-.93.89-.93h7.9Z"/></g></g></svg>