<svg xmlns="http://www.w3.org/2000/svg" viewBox="0 0 33.38 25"><defs><style>.cls-1{fill:#fff;}</style></defs><g id="Capa_2" data-name="Capa 2"><g id="Capa_1-2" data-name="Capa 1"><path class="cls-1" d="M3.2,20H1.53c-.74,0-1.39.06-1.45-.83a18.79,18.79,0,0,1,.15-4.8,8,8,0,0,1,3.9-5.49c.46-.27.56-.42.2-.89A5,5,0,0,1,4.51,1.8,5.06,5.06,0,0,1,10.61.53a1.09,1.09,0,0,1,.56.43.6.6,0,0,1-.08.72.58.58,0,0,1-.71.13,7.21,7.21,0,0,0-1.2-.45A3.77,3.77,0,0,0,5.34,2.79a3.85,3.85,0,0,0-.17,4.26A3.81,3.81,0,0,0,8.89,8.77c.49-.07,1.15-.29,1.27.44S9.55,10,9.08,10a4.18,4.18,0,0,1-2.65-.36,1.09,1.09,0,0,0-1.09,0,6.94,6.94,0,0,0-4,6.35c0,.68,0,1.37,0,2.06s.62.68,1.13.68l2.77,0c.52,0,1,.05,1.07-.58a10.31,10.31,0,0,1,3.38-6.1,8.37,8.37,0,0,1,2.07-1.42c.49-.24.34-.42.1-.75a6.13,6.13,0,1,1,9.84-7.31,6,6,0,0,1-.06,7.18c-.38.51-.35.67.22,1a10.44,10.44,0,0,1,3.66,3.36,10,10,0,0,1,1.1,2.25c.23.65.14,1.89.84,2.28a3.46,3.46,0,0,0,1.72.16l1.64,0c.37,0,.82.13,1.08-.21a1.4,1.4,0,0,0,.22-.8,10,10,0,0,0-1.19-5.34,6.33,6.33,0,0,0-1.54-1.94A3.53,3.53,0,0,0,27,9.66a9.7,9.7,0,0,0-1.67.34,2.51,2.51,0,0,1-1.67-.09c-.33-.16-.62-.55-.47-.89s.79-.35,1.25-.29a3.81,3.81,0,0,0,3.73-2,3.79,3.79,0,0,0-.57-4.2,3.83,3.83,0,0,0-4.14-.92,2.4,2.4,0,0,1-.68.24.6.6,0,0,1-.63-.24A.58.58,0,0,1,22.25,1a1.47,1.47,0,0,1,.57-.4,5.09,5.09,0,0,1,5.7,1.18,5.09,5.09,0,0,1,.67,5.79,1.45,1.45,0,0,0-.31.88c.05.39.42.65.75.87,3.21,2.22,4.2,6.33,3.58,10-.22,1.27-1.84.74-2.73.74H28.11c-.54,0-.89.11-.87.71,0,1,0,2.07,0,3.1S26.66,25,25.66,25H21.22l-8.88,0H7.73c-.72,0-1.64,0-1.67-.92,0-1.12,0-2.24,0-3.36,0-.93-1.35-.71-1.91-.7Zm13.41,3.68c2.87,0,5.73,0,8.59,0,.57,0,.76-.18.74-.75,0-1.11,0-2.24,0-3.35a9.17,9.17,0,0,0-5.21-8,1.23,1.23,0,0,0-1.27,0,5.82,5.82,0,0,1-5.58,0,1.26,1.26,0,0,0-1.26,0,9.28,9.28,0,0,0-4.94,6c-.49,1.75-.22,3.55-.31,5.33,0,.61.17.82.8.82C11,23.7,13.79,23.71,16.61,23.71Zm.12-22.44a4.88,4.88,0,1,0,4.8,4.91A4.86,4.86,0,0,0,16.73,1.27Z"/></g></g></svg>