<svg xmlns="http://www.w3.org/2000/svg" viewBox="0 0 90.4 70.13"><defs><style>.cls-1{fill:#6532ba;}</style></defs><g id="Capa_2" data-name="Capa 2"><g id="Capa_1-2" data-name="Capa 1"><path class="cls-1" d="M0,28.52a2.44,2.44,0,0,1,2.36-1.07q7.85,0,15.69,0c1.35,0,1.35,0,1.35-1.37V15.5c0-1.31.17-1.53,1.4-2Q37.15,6.9,53.5.3a3.43,3.43,0,0,1,2.79,0q16.5,6.78,33,13.52a1.51,1.51,0,0,1,1.07,1.6q0,19.32,0,38.63a2.07,2.07,0,0,1-1.46,2.14Q76.12,61.49,63.3,66.83c-2.42,1-4.84,2-7.24,3a2.84,2.84,0,0,1-2.37,0Q37.22,63,20.72,56.19A2.18,2.18,0,0,1,19.22,54c0-1.68,0-3.36,0-5,0-.74-.26-1-1-1-4.35,0-8.7,0-13,0-1.12,0-1.8-.54-1.89-1.43-.12-1.08.61-1.84,1.84-1.85,3,0,6.11,0,9.17,0,1.32,0,2.64,0,4,0,.67,0,1-.19.94-.9,0-1.17,0-2.35,0-3.52,0-.57-.22-.79-.79-.78-1.67,0-3.35,0-5,0A1.64,1.64,0,0,1,11.88,37a1.68,1.68,0,0,1,1.58-.78c1.62,0,3.23,0,4.85,0,.7,0,.94-.23.92-.92,0-1.12-.05-2.24,0-3.35,0-.76-.29-.94-1-.94-5.24,0-10.47,0-15.7,0A2.76,2.76,0,0,1,0,29.76Zm87.15,7.06h0V19c0-1.3,0-1.3-1.18-.82q-14.27,6-28.56,11.89a1.2,1.2,0,0,0-.87,1.31q0,16.84,0,33.68c0,1,0,1,1,.64q14.33-5.94,28.65-11.88a1.43,1.43,0,0,0,1-1.58C87.13,46.69,87.15,41.13,87.15,35.58ZM53.21,48.28c0-5.64,0-11.29,0-16.93a1.13,1.13,0,0,0-.82-1.25c-1.89-.74-3.75-1.55-5.62-2.33L23.5,18.1c-.49-.21-.9-.39-.89.45q0,4.14,0,8.29c0,.62.26.82.85.82a18,18,0,0,1,2.2.08,1.56,1.56,0,0,1,1.57,1.67A1.62,1.62,0,0,1,25.58,31a13.76,13.76,0,0,1-2,0c-.76-.05-1,.27-.95,1,0,1.08,0,2.17,0,3.26,0,.73.23,1,1,1,2.62,0,5.24,0,7.85,0,2,0,3.94,0,5.91,0A1.62,1.62,0,0,1,39,37.79a1.7,1.7,0,0,1-1.59,1.7,7.85,7.85,0,0,1-1,0c-4.29,0-8.58,0-12.88,0-.7,0-1,.19-1,.94,0,1.15,0,2.3,0,3.44,0,.61.21.84.82.83,1.73,0,3.47,0,5.2,0,1.26,0,2,.61,2,1.63s-.72,1.64-2,1.65c-1.73,0-3.47,0-5.2,0-.6,0-.85.2-.83.81a31.18,31.18,0,0,1,0,3.35c-.08,1,.33,1.38,1.18,1.73Q38,59.75,52.18,65.69c1,.41,1,.4,1-.65ZM25.6,15.3a1.59,1.59,0,0,0,.27.17c4,1.67,8,3.33,12,5a1.57,1.57,0,0,0,1.34-.1L66.66,8.78c.2-.09.48-.09.53-.43a4,4,0,0,0-.46-.23c-3.73-1.5-7.47-3-11.2-4.49a1.67,1.67,0,0,0-1.35,0L26.3,14.86C26.07,15,25.77,15,25.6,15.3Zm17.24,7.21c.49.23.75.36,1,.47,3.39,1.43,6.78,2.83,10.16,4.27a2.16,2.16,0,0,0,1.84,0q13.77-5.79,27.56-11.54c.25-.11.58-.13.72-.52l-.8-.35c-3.46-1.4-6.93-2.77-10.37-4.2a2.54,2.54,0,0,0-2.17,0q-10.53,4.51-21.09,9Z"/><path class="cls-1" d="M65.4,56.38A2.74,2.74,0,0,1,68,53.56a2.92,2.92,0,0,1,2.61,2.83A2.82,2.82,0,0,1,68,59.1,2.76,2.76,0,0,1,65.4,56.38Z"/><path class="cls-1" d="M63.92,58.63a2.7,2.7,0,0,1-2.6,2.78,2.86,2.86,0,0,1-2.58-2.76,2.9,2.9,0,0,1,2.6-2.77A2.84,2.84,0,0,1,63.92,58.63Z"/></g></g></svg>