<svg xmlns="http://www.w3.org/2000/svg" viewBox="0 0 89.98 90"><defs><style>.cls-1{fill:#6532ba;}</style></defs><g id="Capa_2" data-name="Capa 2"><g id="Capa_1-2" data-name="Capa 1"><path class="cls-1" d="M10.38,44.74c-1.16,2.51-2.31,5-3.45,7.47C6.18,53.82,5.46,55.44,4.69,57a15.71,15.71,0,0,0-1.53,7q0,12.34,0,24.7c0,1.23,0,1.24-1.24,1.23C-.23,89.93.05,90.19,0,88,0,80.37.12,72.7,0,65a22.22,22.22,0,0,1,2.21-10.3c2-4.14,3.89-8.36,5.82-12.56a5.29,5.29,0,0,1,2.06-2.58c.56-.32.42-.86.42-1.33,0-9.23,0-18.46,0-27.69a10.19,10.19,0,0,1,5.14-9.09A9.61,9.61,0,0,1,20.81,0C31,0,41.14,0,51.3,0a10.11,10.11,0,0,1,8.4,4.51c.45.61.36.93-.3,1.29-1.76,1-1.76,1-3.1-.38a7.42,7.42,0,0,0-5.54-2.31c-9.79,0-19.58,0-29.37,0a7.42,7.42,0,0,0-7.74,7.75q0,26.52,0,53c0,.2-.08.43.14.65.36-.17.46-.55.64-.85,1.44-2.48,2.84-5,4.32-7.44A6,6,0,0,1,25,53.53a6,6,0,0,1,4.8,4.67,9.71,9.71,0,0,1,0,2.95c1.37-1.27,2.94-1.33,4.55-1.28s3.12,0,4.68,0a4.56,4.56,0,0,1,0,9.11c-1.84,0-3.68,0-5.52,0-3.25,0-5-1.65-5.1-5.13-.26.43-.42.69-.57,1C26.67,66.89,25.48,69,24.26,71c-.33.57-.32.82.44.82,8.7,0,17.4,0,26.1,0,4.5,0,7.55-3.25,7.61-7.78q0-3,0-6.08c0-.78.18-1.13,1-1.1,2.46.08,2.07-.27,2.09,2.08,0,1.93,0,3.86,0,5.8A10.44,10.44,0,0,1,51.29,75c-8.73,0-17.46,0-26.19,0-.32,0-.77-.19-1,.13s.2.62.37.9c1.07,1.76,2.24,3.49,2.48,5.6a77.08,77.08,0,0,1,.11,7.75c0,.07,0,.15,0,.19-.7.8-1.62.24-2.44.36-.56.09-.64-.33-.64-.78,0-1.59,0-3.18,0-4.77a9.5,9.5,0,0,0-1.55-5.58c-.88-1.36-1.66-2.79-2.52-4.16a2.15,2.15,0,0,1,0-2.45C22,68.6,24.07,65,26.15,61.42A3.34,3.34,0,0,0,26.73,59a3,3,0,0,0-2.36-2.37,3,3,0,0,0-3.05,1.56Q18.14,63.68,15,69.15c-.4.69-.8,1.35-1.74,1.33s-1.38-.72-1.74-1.47a10.44,10.44,0,0,1-1-4.43q0-9.63,0-19.27C10.51,45.14,10.59,44.94,10.38,44.74ZM36.11,63c-.93,0-1.87,0-2.8,0s-1.67.63-1.66,1.42a1.51,1.51,0,0,0,1.67,1.41q2.72,0,5.43,0a1.5,1.5,0,0,0,1.65-1.42c0-.8-.66-1.38-1.67-1.42S37,63,36.11,63Z"/><path class="cls-1" d="M65.87,55.53a23.53,23.53,0,0,1-15.09-5.4,2.07,2.07,0,0,0-1.88-.47c-2.77.57-5.57,1-8.35,1.57a1.64,1.64,0,0,1-1.82-2.58c1.47-2.5,2.93-5,4.43-7.49a1.78,1.78,0,0,0,.14-1.66A24,24,0,1,1,69.69,55.27,19.53,19.53,0,0,1,65.87,55.53ZM43.13,47.48c2.25-.41,4.24-.75,6.22-1.15a3,3,0,0,1,2.81.75,20.3,20.3,0,0,0,17.91,4.83A20.85,20.85,0,0,0,86.52,28C84.65,16.5,73,8.53,61.65,11.11a20.8,20.8,0,0,0-15,28.23,2.63,2.63,0,0,1-.22,2.56C45.34,43.67,44.32,45.48,43.13,47.48Z"/><path class="cls-1" d="M23.91,36.16a7.57,7.57,0,0,1-7.47-7.39,7.44,7.44,0,0,1,6.17-7.69,6.84,6.84,0,0,1,4.72.64,1.08,1.08,0,0,0,1.59-.3c.29-.37.68-.65,1-1,.43-.52.77-.42,1.21,0,1.65,1.6,1.68,1.61.05,3.18a1.21,1.21,0,0,0-.29,1.67A7.59,7.59,0,0,1,23.91,36.16Zm4.54-7.79c0-.14-.06-.36-.1-.57s0-.64-.3-.75-.52.25-.73.45c-.72.69-1.42,1.4-2.12,2.11-1.65,1.64-1.63,1.62-3.26-.05-.47-.49-.42-.79,0-1.22,1-.95,2-1.93,2.91-2.91.25-.26.74-.47.64-.85s-.68-.28-1.05-.42a1.08,1.08,0,0,0-.36-.05,4.4,4.4,0,1,0,4.34,4.26Z"/><path class="cls-1" d="M36,9.12c-1.72,0-3.43,0-5.14,0-.68,0-.95-.21-.93-.91C30,5.57,29.68,6,32.1,6c3,0,6,0,9,0,.76,0,1,.22,1,1C42,9.5,42.38,9.08,40,9.12,38.65,9.13,37.34,9.12,36,9.12Z"/><path class="cls-1" d="M37.47,27.08c-.75,0-1.49,0-2.24,0-.56,0-.77-.22-.77-.78,0-2.85-.31-2.28,2.19-2.34,1.05,0,2.11,0,3.17,0,.56,0,.77.23.77.78,0,2.86.31,2.28-2.19,2.35-.31,0-.62,0-.93,0Z"/><path class="cls-1" d="M37.45,33.07a10.44,10.44,0,0,1-1.12,0c-.6-.07-1.44.32-1.73-.27a4.71,4.71,0,0,1-.08-2.48c0-.37.38-.36.66-.36h4.66c.5,0,.71.19.75.71.19,2.42.21,2.42-2.21,2.42Z"/><path class="cls-1" d="M27.11,7.62c0,1.5,0,1.5-1.63,1.5S24,9.12,24,7.49,24,6,25.71,6C27.11,6,27.11,6,27.11,7.62Z"/><path class="cls-1" d="M78,33.23c0,2.87,0,5.74,0,8.6a4.49,4.49,0,0,1-4.7,4.71H58.61a4.48,4.48,0,0,1-4.68-4.72q0-8.7,0-17.4c0-1.47.49-2,2-2,.84,0,1.68,0,2.52,0,1.48,0,1.47,0,1.49-1.45a5.81,5.81,0,0,1,3.7-5.57,6,6,0,0,1,8.4,5.4c0,1.76-.23,1.61,1.69,1.62.85,0,1.69,0,2.53,0,1.22,0,1.76.56,1.77,1.79C78,27.24,78,30.23,78,33.23Zm-12,4.2h8c.46,0,.89,0,.89-.65q0-5.28,0-10.56a.56.56,0,0,0-.52-.64c-2-.35-2.32-.06-2.34,1.9,0,.12,0,.25,0,.37,0,.52-.21.7-.72.73-2.32.17-2.32.19-2.4-2.14v-.09c0-.57-.2-.78-.76-.77-1.37,0-2.75.05-4.12,0-.8,0-1,.29-1,1,0,2.21.36,1.93-2,2-.82,0-1.16-.19-1.15-1.09,0-2.14.46-1.88-2-1.93-.69,0-.83.3-.83.91,0,3.33,0,6.67,0,10,0,.74.24,1,1,1C60.65,37.41,63.3,37.43,66,37.43ZM66,40.55c-2.52,0-5.05,0-7.57,0-.46,0-1.12-.3-1.33.32a2.11,2.11,0,0,0,.27,1.89,1.84,1.84,0,0,0,1.67.64H72.88a2.58,2.58,0,0,0,1.1-.18,2,2,0,0,0,.89-2.17c-.16-.83-.84-.49-1.29-.49C71.06,40.53,68.53,40.55,66,40.55ZM66,22.46c.75,0,1.5,0,2.24,0,.39,0,.66-.09.69-.55a3.34,3.34,0,0,0-1.44-3.33,2.68,2.68,0,0,0-3.07.05A3.36,3.36,0,0,0,63,21.91c0,.47.3.55.69.55C64.47,22.45,65.22,22.46,66,22.46Z"/></g></g></svg>