<svg xmlns="http://www.w3.org/2000/svg" viewBox="0 0 52.12 90"><defs><style>.cls-1{fill:#6532ba;}</style></defs><g id="Capa_2" data-name="Capa 2"><g id="Capa_1-2" data-name="Capa 1"><path class="cls-1" d="M4.8,90A2.29,2.29,0,0,1,4,88c0-.94,0-1.88,0-2.81,0-.62-.23-.84-.83-.81a14.6,14.6,0,0,1-1.75,0A1.4,1.4,0,0,1,0,82.89q0-5.22,0-10.45a1.42,1.42,0,0,1,1.4-1.58c.8,0,1.35.63,1.35,1.61,0,2.7,0,5.39,0,8.08,0,.77.24,1,1,1q19.41,0,38.82,0c.83,0,1-.3,1-1.08q0-32.8,0-65.61c0-.84-.25-1.11-1.1-1.09-2.4.05-4.8,0-7.2,0-.72,0-1,.23-1,1s0,1.52,0,2.28c0,.54.21.75.73.72a2.81,2.81,0,0,1,.87,0,1.26,1.26,0,0,1,1,1.34,1.24,1.24,0,0,1-1,1.32,4.39,4.39,0,0,1-1,.05H11.45c-.23,0-.47,0-.7,0A1.38,1.38,0,0,1,9.4,19.14a1.39,1.39,0,0,1,1.32-1.39C12,17.61,12,17.61,12,16.34c0-2.53,0-2.53-2.53-2.53H3.93c-1.16,0-1.16,0-1.16,1.16V64.85c0,.44,0,.88,0,1.32A1.39,1.39,0,0,1,1.4,67.52,1.43,1.43,0,0,1,0,66.19a8.62,8.62,0,0,1,0-.88V13.14c0-1.8.41-2.21,2.23-2.21,2.9,0,5.79,0,8.69,0,.86,0,1.11-.28,1.1-1.11,0-2.55,0-5.1,0-7.64C12,.41,12.41,0,14.16,0H32.25c1.8,0,2.12.33,2.12,2.17,0,2.61,0,5.21,0,7.82,0,.73.25,1,1,.95,3,0,6,0,9,0,1.72,0,2.19.47,2.2,2.19,0,.73,0,1.46,0,2.19s.25.87.88.85c1,0,2.11,0,3.16,0s1.59.47,1.6,1.61q0,3.07,0,6.15c0,1-.57,1.67-1.41,1.65s-1.34-.63-1.35-1.62c0-1.4,0-2.81,0-4.21,0-.6-.18-.85-.81-.83-2.47.05-2.07-.31-2.07,2q0,27,0,54.1c0,1.41,0,1.41,1.44,1.41.27,0,.53,0,.79,0,.44,0,.65-.19.64-.63,0-.27,0-.53,0-.79V31.27a7.21,7.21,0,0,1,0-1.14A1.24,1.24,0,0,1,50.71,29a1.27,1.27,0,0,1,1.37,1.11,4.2,4.2,0,0,1,0,.87q0,23.14,0,46.29c0,1.57-.46,2-2,2H47.62c-1.14,0-1.14,0-1.14,1.19,0,.76,0,1.52,0,2.28a1.49,1.49,0,0,1-1.65,1.64c-.52,0-1,0-1.58,0s-.85.2-.83.81c0,1,0,2,0,3.08A1.78,1.78,0,0,1,41.52,90ZM23.2,17.74c2.45,0,4.91,0,7.36,0,.74,0,1-.25,1-1q0-6.54,0-13.07c0-.7-.21-1-1-1q-7.42,0-14.83,0c-.71,0-.9.25-.89.92q0,6.57,0,13.15c0,.75.26.94,1,.93C18.28,17.72,20.74,17.74,23.2,17.74Zm.14,66.69c-4.94,0-9.89,0-14.83,0-1.7,0-1.58-.19-1.58,1.62,0,1.25,0,1.25,1.25,1.25q14.84,0,29.66,0c1.91,0,1.64.26,1.72-1.75,0-.88-.23-1.15-1.13-1.14C33.4,84.45,28.37,84.43,23.34,84.43Z"/><path class="cls-1" d="M23.2,41.17H9.41c-1.94,0-2.36-.43-2.36-2.39V26.13c0-1.58.47-2,2.05-2,1,0,2.05,0,3.07,0a1.43,1.43,0,1,1,.09,2.85,11.88,11.88,0,0,1-1.58,0c-.51,0-.75.18-.75.72q0,5,0,9.92c0,.71.43.71.93.7H25.08c3.46,0,6.91,0,10.37,0,.81,0,1.13-.19,1.11-1.07-.05-3.1,0-6.2,0-9.31,0-.78-.26-1-1-1-5.38,0-10.77,0-16.16,0a4.76,4.76,0,0,1-1.13-.1,1.3,1.3,0,0,1-1.06-1.42,1.33,1.33,0,0,1,1.12-1.29,4.35,4.35,0,0,1,1-.06q9,0,17.91,0c1.74,0,2.22.45,2.22,2.17q0,6.31,0,12.64c0,1.81-.48,2.26-2.32,2.27Z"/><path class="cls-1" d="M34.94,53.17c-1,0-1.93,0-2.89,0s-1.45-.42-1.52-1.36a45.09,45.09,0,0,1,0-6,1.43,1.43,0,0,1,1.56-1.45q2.85,0,5.7,0a1.45,1.45,0,0,1,1.59,1.52c.06,1.93.06,3.86,0,5.78,0,1.12-.58,1.53-1.7,1.56H34.94Zm.05-6c-1.9,0-1.65-.19-1.67,1.69,0,.14,0,.29,0,.44-.09.75.22,1.09,1,1,.23,0,.47,0,.7,0,1.54,0,1.55,0,1.54-1.58S36.72,47.18,35,47.18Z"/><path class="cls-1" d="M34.93,56.4c.94,0,1.87,0,2.81,0s1.52.44,1.6,1.39a45.09,45.09,0,0,1,0,6,1.42,1.42,0,0,1-1.57,1.43c-1.9,0-3.79,0-5.69,0a1.43,1.43,0,0,1-1.57-1.44,49.38,49.38,0,0,1,0-6c.06-1,.61-1.44,1.62-1.46S34,56.4,34.93,56.4ZM35,59.26c-1.88,0-1.67-.11-1.67,1.62s-.17,1.52,1.59,1.51,1.63.15,1.63-1.56S36.54,59.26,35,59.26Z"/><path class="cls-1" d="M15.92,60.79c0,.94,0,1.87,0,2.81a1.46,1.46,0,0,1-1.6,1.66c-1.87,0-3.75,0-5.62,0a1.47,1.47,0,0,1-1.63-1.64c0-1.87,0-3.74,0-5.61A1.46,1.46,0,0,1,8.73,56.4q2.76,0,5.52,0c1.15,0,1.65.54,1.67,1.67C15.94,59,15.92,59.89,15.92,60.79Zm-4.5,1.6h1c.7,0,.77-.5.66-1-.17-.72.65-1.88-.61-2.13-2.29-.44-2.55-.15-2.5,2.16a1.08,1.08,0,0,1,0,.18c0,.57.24.79.79.76C11,62.38,11.18,62.39,11.42,62.39Z"/><path class="cls-1" d="M23.23,56.4c.91,0,1.82,0,2.72,0,1.15,0,1.7.53,1.71,1.65q0,2.76,0,5.52c0,1.17-.58,1.69-1.77,1.7-1.78,0-3.56,0-5.35,0-1.22,0-1.73-.55-1.74-1.8,0-1.78,0-3.57,0-5.35,0-1.2.5-1.7,1.7-1.72C21.42,56.38,22.33,56.4,23.23,56.4Zm1.57,4.37c0-1.51,0-1.51-1.45-1.51-1.69,0-1.69,0-1.69,1.55s0,1.59,1.64,1.59S24.8,62.4,24.8,60.77Z"/><path class="cls-1" d="M15.92,48.74c0,1,0,1.93,0,2.9a1.39,1.39,0,0,1-1.54,1.52c-1.89,0-3.79,0-5.69,0a1.43,1.43,0,0,1-1.62-1.55q-.06-2.85,0-5.7a1.47,1.47,0,0,1,1.6-1.59c1.9,0,3.8,0,5.7,0a1.45,1.45,0,0,1,1.55,1.63C15.94,46.87,15.92,47.81,15.92,48.74Zm-6-.07c0,1.64,0,1.64,1.41,1.64,1.72,0,1.72,0,1.73-1.51s0-1.63-1.52-1.62C9.83,47.18,9.94,47,9.93,48.67Z"/><path class="cls-1" d="M18.8,48.77c0-1,0-1.93,0-2.89a1.42,1.42,0,0,1,1.52-1.56c1.9,0,3.8,0,5.7,0A1.51,1.51,0,0,1,27.66,46q0,2.81,0,5.61a1.44,1.44,0,0,1-1.6,1.57q-2.85,0-5.7,0c-1,0-1.53-.53-1.55-1.59S18.8,49.7,18.8,48.77Zm4.47-1.59c-1.61,0-1.61,0-1.61,1.43,0,1.7,0,1.7,1.54,1.7s1.6,0,1.59-1.54C24.79,47.05,25,47.18,23.27,47.18Z"/><path class="cls-1" d="M35,68.5h2.89a1.28,1.28,0,0,1,1.43,1.24,40,40,0,0,1,0,6.29,1.33,1.33,0,0,1-1.43,1.28c-2,0-3.91.06-5.87,0a1.37,1.37,0,0,1-1.5-1.48,46,46,0,0,1,0-5.87c.06-1.07.57-1.45,1.68-1.47.93,0,1.87,0,2.8,0ZM36.54,73c0-1.91.22-1.68-1.67-1.68-1.71,0-1.56-.19-1.55,1.53,0,1.9-.23,1.68,1.67,1.69C36.71,74.49,36.53,74.65,36.54,73Z"/><path class="cls-1" d="M15.92,73c0,.91,0,1.81,0,2.72s-.49,1.62-1.52,1.65c-1.93,0-3.86,0-5.78,0a1.46,1.46,0,0,1-1.55-1.65c0-1.86,0-3.73,0-5.6a1.41,1.41,0,0,1,1.59-1.56c1.9,0,3.79,0,5.69,0a1.38,1.38,0,0,1,1.57,1.56C15.94,71,15.92,72,15.92,73Zm-4.4-1.7c-1.59,0-1.6,0-1.59,1.35,0,2-.23,1.89,1.4,1.88,1.79,0,1.74.25,1.74-1.56S13.16,71.27,11.52,71.26Z"/><path class="cls-1" d="M23.22,68.5c.94,0,1.88,0,2.81,0S27.64,69,27.66,70c0,1.9,0,3.8,0,5.71a1.42,1.42,0,0,1-1.46,1.56c-2,.06-4,.07-6,0a1.39,1.39,0,0,1-1.43-1.57c0-1.9,0-3.8,0-5.71,0-1,.53-1.52,1.6-1.54S22.29,68.5,23.22,68.5Zm1.58,4.43c0-1.9.17-1.64-1.7-1.67a3.23,3.23,0,0,1-.44,0c-.76-.1-1.09.23-1,1,0,.23,0,.47,0,.7,0,1.54,0,1.55,1.59,1.54S24.79,74.66,24.8,72.93Z"/><path class="cls-1" d="M23.22,5.64H27c1,0,1.7.56,1.72,1.37a1.49,1.49,0,0,1-1.63,1.48c-2.57,0-5.15,0-7.72,0A1.43,1.43,0,0,1,17.76,7c0-.84.64-1.35,1.69-1.37Z"/><path class="cls-1" d="M23.24,14.86H19.47c-1.06,0-1.69-.52-1.71-1.36S18.35,12,19.43,12q3.83,0,7.63,0a1.5,1.5,0,0,1,1.65,1.46c0,.82-.67,1.38-1.7,1.39Z"/></g></g></svg>