<svg xmlns="http://www.w3.org/2000/svg" viewBox="0 0 52.33 52.33"><defs><style>.cls-1{fill:#fff;}.cls-2{fill:#6532ba;}.cls-3{fill:#253080;}.cls-4{fill:#ffe500;}.cls-5{fill:#e32213;}</style></defs><g id="Capa_2" data-name="Capa 2"><g id="Capa_1-2" data-name="Capa 1"><circle class="cls-1" cx="26.17" cy="26.17" r="25.67"/><path class="cls-2" d="M26.17,52.33A26.17,26.17,0,1,1,52.33,26.17,26.2,26.2,0,0,1,26.17,52.33ZM26.17,1A25.17,25.17,0,1,0,51.33,26.17,25.2,25.2,0,0,0,26.17,1Z"/><path class="cls-3" d="M14.73,16c.6-.44,8.82-3.22,21.1-2.75a1.67,1.67,0,0,1,1.25.91l1.25,2.68s.68.87-.36.9c0,0-9.22.56-12.1,1.07s-8.79,2-8.79,2-.85.27-1.22-.24l-1.38-3.7s-.35-.44.25-.87Z"/><path class="cls-4" d="M10.55,24.82c.6-.43,16.52-6,28.8-5.48,0,0,.6,0,1,.77l1.37,3.57s.43.85-.67,1.1c0,0-12.31,2.23-15.73,3.12C20.76,29,13,31.7,13,31.7a1.29,1.29,0,0,1-1.56-.59l-1.25-4.54s-.29-1.32.32-1.75Z"/><path class="cls-5" d="M21.6,30.6c.6-.43,5.2-2,17.27-4.26,0,0,1.29-.27,1.65.53l1.57,4.48s.49,1-.94,1.6c0,0-4.88,1.87-7.65,2.82-3.12,1.06-8.4,3.28-8.4,3.28a1.34,1.34,0,0,1-1.78-1L21.2,31.76a1.12,1.12,0,0,1,.4-1.16Z"/></g></g></svg>