<svg xmlns="http://www.w3.org/2000/svg" viewBox="0 0 52.33 52.33"><defs><style>.cls-1{fill:#fff;}.cls-2{fill:#6532ba;}.cls-3{fill:#3daa9d;}.cls-4{fill:#79ccb8;}</style></defs><g id="Capa_2" data-name="Capa 2"><g id="Capa_1-2" data-name="Capa 1"><circle class="cls-1" cx="26.17" cy="26.17" r="25.67"/><path class="cls-2" d="M26.17,52.33A26.17,26.17,0,1,1,52.33,26.17,26.2,26.2,0,0,1,26.17,52.33ZM26.17,1A25.17,25.17,0,1,0,51.33,26.17,25.2,25.2,0,0,0,26.17,1Z"/><path class="cls-3" d="M40.6,16.36H17.87a.66.66,0,0,0-.65.65V29.19a.66.66,0,0,0,.65.65H40.6a.65.65,0,0,0,.65-.65V17A.66.66,0,0,0,40.6,16.36Z"/><path class="cls-4" d="M38.52,25.13V21.08a2.41,2.41,0,0,1-2.4-2.4H22.36a2.41,2.41,0,0,1-2.4,2.4v4.05a2.4,2.4,0,0,1,2.4,2.4H36.12A2.4,2.4,0,0,1,38.52,25.13Z"/><path class="cls-3" d="M34.46,22.49H11.73a.66.66,0,0,0-.64.66V35.33a.65.65,0,0,0,.64.65H34.46a.65.65,0,0,0,.65-.65V23.15A.66.66,0,0,0,34.46,22.49Z"/><path class="cls-4" d="M32.38,31.27V27.22a2.41,2.41,0,0,1-2.4-2.4H16.22a2.41,2.41,0,0,1-2.4,2.4v4.05a2.4,2.4,0,0,1,2.4,2.4H30A2.4,2.4,0,0,1,32.38,31.27Z"/></g></g></svg>