<svg xmlns="http://www.w3.org/2000/svg" viewBox="0 0 51.33 51.33"><defs><style>.cls-1{fill:#3e5c9a;}.cls-2{fill:#fff;}</style></defs><g id="Capa_2" data-name="Capa 2"><g id="Capa_1-2" data-name="Capa 1"><path class="cls-1" d="M25.67,51.33h0A25.66,25.66,0,0,1,0,25.67H0A25.67,25.67,0,0,1,25.67,0h0A25.66,25.66,0,0,1,51.33,25.67h0A25.66,25.66,0,0,1,25.67,51.33Z"/><path class="cls-2" d="M21.76,41.18H28V25.53h4.36l.47-5.23H28v-3c0-1.23.25-1.72,1.45-1.72h3.38V10.15H28.5c-4.65,0-6.74,2-6.74,6V20.3H18.51v5.3h3.25Z"/></g></g></svg>