<svg xmlns="http://www.w3.org/2000/svg" xmlns:xlink="http://www.w3.org/1999/xlink" viewBox="0 0 51.33 51.33"><defs><style>.cls-1{fill:url(#Degradado_sin_nombre_2);}.cls-2{fill:#fff;}</style><radialGradient id="Degradado_sin_nombre_2" cx="-1.28" cy="51.5" r="94.91" gradientUnits="userSpaceOnUse"><stop offset="0" stop-color="#f5ec53"/><stop offset="0.24" stop-color="#e48244"/><stop offset="0.4" stop-color="#d15767"/><stop offset="0.49" stop-color="#c84278"/><stop offset="1" stop-color="#192cfa"/></radialGradient></defs><g id="Capa_2" data-name="Capa 2"><g id="Capa_1-2" data-name="Capa 1"><path class="cls-1" d="M25.67,51.33h0A25.66,25.66,0,0,1,0,25.67H0A25.67,25.67,0,0,1,25.67,0h0A25.66,25.66,0,0,1,51.33,25.67h0A25.66,25.66,0,0,1,25.67,51.33Z"/><path class="cls-2" d="M25.67,14.13c3.75,0,4.2,0,5.68.08A7.59,7.59,0,0,1,34,14.7a4.7,4.7,0,0,1,2.67,2.67A7.78,7.78,0,0,1,37.12,20c.07,1.48.08,1.93.08,5.69s0,4.2-.08,5.68A7.91,7.91,0,0,1,36.64,34,4.78,4.78,0,0,1,34,36.64a7.91,7.91,0,0,1-2.62.48c-1.48.07-1.93.08-5.68.08s-4.21,0-5.69-.08a7.78,7.78,0,0,1-2.61-.48A4.7,4.7,0,0,1,14.7,34a7.59,7.59,0,0,1-.49-2.62c-.07-1.48-.08-1.93-.08-5.68s0-4.21.08-5.69a7.46,7.46,0,0,1,.49-2.61,4.62,4.62,0,0,1,2.67-2.67A7.46,7.46,0,0,1,20,14.21c1.48-.07,1.93-.08,5.69-.08m0-2.54c-3.83,0-4.31,0-5.81.09a10.3,10.3,0,0,0-3.41.65,7.28,7.28,0,0,0-4.12,4.12,10.3,10.3,0,0,0-.65,3.41c-.07,1.51-.09,2-.09,5.81s0,4.3.09,5.8a10.25,10.25,0,0,0,.65,3.41A7.21,7.21,0,0,0,16.45,39a10.05,10.05,0,0,0,3.41.65c1.5.07,2,.09,5.81.09s4.3,0,5.8-.09A10,10,0,0,0,34.88,39,7.13,7.13,0,0,0,39,34.88a10,10,0,0,0,.65-3.41c.07-1.5.09-2,.09-5.8s0-4.3-.09-5.81A10.05,10.05,0,0,0,39,16.45a7.21,7.21,0,0,0-4.12-4.12,10.25,10.25,0,0,0-3.41-.65c-1.5-.07-2-.09-5.8-.09"/><path class="cls-2" d="M25.67,18.44a7.23,7.23,0,1,0,7.22,7.23,7.23,7.23,0,0,0-7.22-7.23m0,11.92a4.69,4.69,0,1,1,4.69-4.69,4.69,4.69,0,0,1-4.69,4.69"/><path class="cls-2" d="M34.87,18.15a1.69,1.69,0,1,1-1.69-1.68,1.69,1.69,0,0,1,1.69,1.68"/></g></g></svg>