<svg xmlns="http://www.w3.org/2000/svg" viewBox="0 0 52.33 52.33"><defs><style>.cls-1{fill:#fff;}.cls-2{fill:#6532ba;}.cls-3{fill:#fd2b72;}.cls-3,.cls-4,.cls-5{fill-rule:evenodd;}.cls-4{fill:#2fc8d6;}.cls-5{fill:#200049;}</style></defs><g id="Capa_2" data-name="Capa 2"><g id="Capa_1-2" data-name="Capa 1"><circle class="cls-1" cx="26.17" cy="26.17" r="25.67"/><path class="cls-2" d="M26.17,52.33A26.17,26.17,0,1,1,52.33,26.17,26.2,26.2,0,0,1,26.17,52.33ZM26.17,1A25.17,25.17,0,1,0,51.33,26.17,25.2,25.2,0,0,0,26.17,1Z"/><path class="cls-3" d="M18.8,16.27,15.46,18c-1.48.77-2.3,3.26-1.37,4.53l.08.11,3.15-4.32,1.48-2Z"/><path class="cls-4" d="M18.79,29l-4.62-6.33-.92,1.27c-.94,1.28.1,3.8,1.37,4.44l6,3c-.61-.81-1.21-1.6-1.78-2.38Z"/><path class="cls-3" d="M29.61,35.9l-8-4-1-.52c1.29,1.72,2.65,3.5,3.95,5.26a2.61,2.61,0,0,0,4.26.19l.83-.89Z"/><path class="cls-4" d="M34.4,30.74,29.61,35.9l.8.4A2.45,2.45,0,0,0,34,34.81q.78-2.76,1.47-5.24-.54.57-1.08,1.17Z"/><path class="cls-3" d="M36.28,26.72c-.26.91-.52,1.86-.8,2.85,1.17-1.26,2.26-2.45,3.3-3.56a2,2,0,0,0,.08-2.85l-.52-.58-.69-.78q-.65,2.31-1.37,4.92Z"/><path class="cls-4" d="M34,17.66l3.68,4.14c.13-.46.26-.92.39-1.36a1.76,1.76,0,0,0-1.15-2.26l-.75-.3-3.08-1.24.91,1Z"/><path class="cls-3" d="M29.8,15.34l3.26,1.3L29.86,13l-.47-.53a2,2,0,0,0-2.68-.33l-2.09,1.08,5.18,2.08Z"/><path class="cls-5" d="M33.06,16.64l-3.26-1.3-5.18-2.08-3.2,1.65L18.8,16.27l-1.48,2-3.15,4.32L18.79,29c.57.78,1.17,1.57,1.78,2.38l1,.52,8,4,4.79-5.16q.54-.6,1.08-1.17c.28-1,.54-1.94.8-2.85q.72-2.61,1.37-4.92L34,17.66l-.91-1Z"/><path class="cls-4" d="M21.42,14.91l3.2-1.65-1-.41-.27-.11c-1-.39-1.73-.33-2.24.38l-.21.29L18.8,16.27l2.62-1.36Z"/></g></g></svg>