<svg xmlns="http://www.w3.org/2000/svg" viewBox="0 0 51.33 51.33"><defs><style>.cls-1{fill:#fff;}</style></defs><g id="Capa_2" data-name="Capa 2"><g id="Capa_1-2" data-name="Capa 1"><path class="cls-1" d="M25.74,0C11.58-.24.05,11.71,0,25.55A25.9,25.9,0,0,0,25.55,51.33,25.9,25.9,0,0,0,51.33,25.68C51.35,11.78,39.83-.17,25.74,0ZM38.59,38.78H31.77a.62.62,0,0,1-.52-.3l-5.1-8.4a.61.61,0,0,0-1,0l-5.26,8.42a.6.6,0,0,1-.52.29H12.74a.61.61,0,0,1-.49-1l8.71-12a.62.62,0,0,0,0-.71L12.7,13.51a.61.61,0,0,1,.5-1h6.86a.63.63,0,0,1,.53.3l4.81,8a.6.6,0,0,0,1,0l4.81-8a.62.62,0,0,1,.52-.3h6.65a.61.61,0,0,1,.5,1L30.59,25.12a.6.6,0,0,0,0,.71l8.5,12A.61.61,0,0,1,38.59,38.78Z"/></g></g></svg>