<svg xmlns="http://www.w3.org/2000/svg" viewBox="0 0 51.33 51.33"><defs><style>.cls-1{fill:#6532ba;}</style></defs><g id="Capa_2" data-name="Capa 2"><g id="Capa_1-2" data-name="Capa 1"><path class="cls-1" d="M25.74,0C11.58-.24.05,11.71,0,25.55A25.9,25.9,0,0,0,25.55,51.33,25.9,25.9,0,0,0,51.33,25.68C51.35,11.78,39.83-.17,25.74,0ZM40.66,17.9l-18.95,19a2.46,2.46,0,0,1-1.72.71,2.42,2.42,0,0,1-1.71-.71l-7.61-7.61a2.42,2.42,0,1,1,3.42-3.43l5.9,5.9L37.23,14.47a2.43,2.43,0,0,1,3.43,3.43Z"/></g></g></svg>