<svg xmlns="http://www.w3.org/2000/svg" viewBox="0 0 51.33 51.33"><defs><style>.cls-1{fill:#57f676;}.cls-2{fill:#fff;fill-rule:evenodd;}</style></defs><g id="Capa_2" data-name="Capa 2"><g id="Capa_1-2" data-name="Capa 1"><path class="cls-1" d="M25.67,51.33h0A25.66,25.66,0,0,1,0,25.67H0A25.67,25.67,0,0,1,25.67,0h0A25.66,25.66,0,0,1,51.33,25.67h0A25.66,25.66,0,0,1,25.67,51.33Z"/><path class="cls-2" d="M39.74,25a13.83,13.83,0,0,0-27.63-.25c0,.2,0,.4,0,.6a13.57,13.57,0,0,0,2,7.09l-2.49,7.36,7.65-2.44a13.84,13.84,0,0,0,20.5-12ZM25.92,36.83a11.57,11.57,0,0,1-6.39-1.9l-4.47,1.42,1.45-4.28A11.45,11.45,0,0,1,14.3,25.3a10.51,10.51,0,0,1,.06-1.12,11.62,11.62,0,0,1,23.14.22c0,.3,0,.6,0,.9A11.59,11.59,0,0,1,25.92,36.83Z"/><path class="cls-2" d="M32.26,28.07c-.35-.16-2-1-2.32-1.09s-.54-.17-.76.17-.88,1.09-1.08,1.31-.39.25-.74.09a9.28,9.28,0,0,1-2.72-1.67,10,10,0,0,1-1.88-2.33c-.2-.33,0-.51.15-.68s.33-.4.51-.59l.12-.16a2.61,2.61,0,0,0,.21-.41.59.59,0,0,0,0-.58c-.09-.17-.77-1.83-1.05-2.5s-.56-.56-.76-.56-.42,0-.65,0a1.24,1.24,0,0,0-.91.42,3.77,3.77,0,0,0-1.18,2.81,4.3,4.3,0,0,0,.17,1.14,7.59,7.59,0,0,0,1.21,2.33c.17.22,2.35,3.73,5.79,5.08s3.45.9,4.07.84a3.35,3.35,0,0,0,2.28-1.6,2.69,2.69,0,0,0,.2-1.6C32.82,28.33,32.59,28.24,32.26,28.07Z"/></g></g></svg>